<svg xmlns="http://www.w3.org/2000/svg" xmlns:svg="http://www.w3.org/2000/svg" xmlns:xlink="http://www.w3.org/1999/xlink" id="svg5" width="256" height="256" version="1.1" viewBox="0 0 256 256" xml:space="preserve"><title id="title11">PJ568</title><defs id="defs2"><linearGradient id="linearGradient150319"><stop style="stop-color:#000;stop-opacity:1" id="stop150315" offset="0"/><stop style="stop-color:#000;stop-opacity:0" id="stop150317" offset="1"/></linearGradient><linearGradient id="linearGradient138651"><stop style="stop-color:#1b0c10;stop-opacity:1" id="stop138647" offset="0"/><stop style="stop-color:#2a1b1e;stop-opacity:1" id="stop138649" offset="1"/></linearGradient><linearGradient id="linearGradient135332"><stop style="stop-color:#9596a2;stop-opacity:1" id="stop135328" offset="0"/><stop style="stop-color:#e7eff4;stop-opacity:1" id="stop135330" offset="1"/></linearGradient><linearGradient id="linearGradient129958"><stop style="stop-color:#cdd7e3;stop-opacity:1" id="stop129954" offset="0"/><stop style="stop-color:#fcfcfe;stop-opacity:1" id="stop129956" offset=".572"/></linearGradient><linearGradient id="linearGradient17519"><stop style="stop-color:#000;stop-opacity:0" id="stop17513" offset="0"/><stop style="stop-color:#000;stop-opacity:.30000001" id="stop17515" offset=".5"/><stop style="stop-color:#000;stop-opacity:0" id="stop17517" offset="1"/></linearGradient><linearGradient id="linearGradient117093"><stop style="stop-color:#582814;stop-opacity:1" id="stop117087" offset="0"/><stop style="stop-color:#864123;stop-opacity:1" id="stop117089" offset=".488"/><stop style="stop-color:#b48a73;stop-opacity:1" id="stop117091" offset="1"/></linearGradient><rect id="rect104544" width="80.525" height="49.926" x="68.446" y="137.295"/><linearGradient id="linearGradient100563"><stop style="stop-color:#000;stop-opacity:0" id="stop100559" offset="0"/><stop style="stop-color:#000;stop-opacity:.64999998" id="stop100567" offset=".5"/><stop style="stop-color:#000;stop-opacity:0" id="stop100561" offset="1"/></linearGradient><linearGradient id="linearGradient88617"><stop style="stop-color:#2a140b;stop-opacity:1" id="stop88607" offset="0"/><stop style="stop-color:#25141b;stop-opacity:1" id="stop88678" offset=".662"/><stop style="stop-color:#878697;stop-opacity:1" id="stop88680" offset=".883"/><stop style="stop-color:#c0c7d1;stop-opacity:1" id="stop88609" offset="1"/></linearGradient><linearGradient id="linearGradient75747"><stop style="stop-color:#2a140b;stop-opacity:1" id="stop75743" offset="0"/><stop style="stop-color:#7e371a;stop-opacity:1" id="stop75751" offset=".477"/><stop style="stop-color:#a96c4a;stop-opacity:1" id="stop86450" offset=".696"/><stop style="stop-color:#c2aca2;stop-opacity:1" id="stop85137" offset=".899"/><stop style="stop-color:#cbc9c9;stop-opacity:1" id="stop75745" offset="1"/></linearGradient><linearGradient id="linearGradient54611"><stop style="stop-color:#684b4a;stop-opacity:1" id="stop54607" offset="0"/><stop style="stop-color:#766a68;stop-opacity:1" id="stop58761" offset=".182"/><stop style="stop-color:#746254;stop-opacity:1" id="stop58763" offset=".4"/><stop style="stop-color:#5c4739;stop-opacity:1" id="stop58765" offset=".671"/><stop style="stop-color:#584336;stop-opacity:1" id="stop58767" offset=".822"/><stop style="stop-color:#473531;stop-opacity:1" id="stop54609" offset="1"/></linearGradient><linearGradient id="linearGradient38681"><stop style="stop-color:#5e5766;stop-opacity:1" id="stop38677" offset="0"/><stop style="stop-color:#85869b;stop-opacity:1" id="stop42963" offset="1"/></linearGradient><linearGradient id="linearGradient1491"><stop style="stop-color:#261816;stop-opacity:1" id="stop1487" offset="0"/><stop style="stop-color:#483b3a;stop-opacity:1" id="stop19571" offset=".62"/><stop style="stop-color:#362928;stop-opacity:1" id="stop1489" offset="1"/></linearGradient><linearGradient id="linearGradient31697" x1="-6.232" x2="253.891" y1="224.575" y2="224.575" gradientTransform="matrix(1.0184735,0,0,1.000007,-2.7706171,-0.04820756)" gradientUnits="userSpaceOnUse" xlink:href="#linearGradient1491"/><linearGradient id="linearGradient51372" x1="120.81" x2="120.306" y1="193.809" y2="136.134" gradientTransform="matrix(1.0001086,0,0,1.3006384,0.59896483,-40.088143)" gradientUnits="userSpaceOnUse" xlink:href="#linearGradient38681"/><linearGradient id="linearGradient54613" x1="232.718" x2="193.996" y1="1.576" y2="162.626" gradientUnits="userSpaceOnUse" xlink:href="#linearGradient54611"/><linearGradient id="linearGradient75749" x1="147.361" x2="136.49" y1="173.934" y2="111.125" gradientTransform="matrix(1.0170566,0,0,1.0063749,-1.8890675,-0.71097822)" gradientUnits="userSpaceOnUse" xlink:href="#linearGradient88617"/><linearGradient id="linearGradient100498" x1="139.711" x2="126.827" y1="175.142" y2="117.164" gradientUnits="userSpaceOnUse" xlink:href="#linearGradient75747"/><linearGradient id="linearGradient100565" x1="141.546" x2="142.159" y1="180.911" y2="167.112" gradientUnits="userSpaceOnUse" xlink:href="#linearGradient100563"/><filter id="filter101008" width="1.188" height="1.125" x="-.094" y="-.063" style="color-interpolation-filters:sRGB"><feGaussianBlur id="feGaussianBlur101002" result="blur" stdDeviation="10 5"/><feColorMatrix id="feColorMatrix101004" result="colormatrix" values="1 0 0 0 0 0 1 0 0 0 0 0 1 0 0 0 0 0 50 0"/><feComposite id="feComposite101006" in="colormatrix" in2="SourceGraphic" operator="in"/></filter><filter style="color-interpolation-filters:sRGB" id="filter103860" width="1.018" height="1.065" x="-.009" y="-.032"><feGaussianBlur id="feGaussianBlur103852" result="blur" stdDeviation="1"/><feComposite id="feComposite103854" in="SourceGraphic" in2="blur" operator="atop" result="composite1"/><feComposite id="feComposite103856" in2="composite1" operator="in" result="composite2"/><feComposite id="feComposite103858" in2="composite2" operator="in" result="composite3"/></filter><filter style="color-interpolation-filters:sRGB" id="filter104040" width="1" height="1" x="0" y="0"><feTurbulence id="feTurbulence104036" baseFrequency="0.013 0.013" numOctaves="1" result="turbulence" seed="1" type="fractalNoise"/><feDisplacementMap id="feDisplacementMap104038" in="SourceGraphic" in2="turbulence" scale="6.4" xChannelSelector="R" yChannelSelector="G"/></filter><filter style="color-interpolation-filters:sRGB" id="filter104116" width="1.054" height="1.015" x="-.027" y="-.008"><feGaussianBlur id="feGaussianBlur104108" result="blur" stdDeviation=".2"/><feComposite id="feComposite104110" in="SourceGraphic" in2="blur" operator="atop" result="composite1"/><feComposite id="feComposite104112" in2="composite1" operator="in" result="composite2"/><feComposite id="feComposite104114" in2="composite2" operator="in" result="composite3"/></filter><linearGradient id="linearGradient116464" x1="125.391" x2="119.531" y1="157.813" y2="126.953" gradientUnits="userSpaceOnUse" xlink:href="#linearGradient117093"/><filter style="color-interpolation-filters:sRGB" id="filter122910" width="1.216" height="1.275" x="-.108" y="-.137"><feGaussianBlur id="feGaussianBlur122902" result="blur" stdDeviation=".4"/><feComposite id="feComposite122904" in="SourceGraphic" in2="blur" operator="atop" result="composite1"/><feComposite id="feComposite122906" in2="composite1" operator="in" result="composite2"/><feComposite id="feComposite122908" in2="composite2" operator="in" result="composite3"/></filter><filter style="color-interpolation-filters:sRGB" id="filter129398" width="1.777" height="1.774" x="-.388" y="-.387"><feGaussianBlur id="feGaussianBlur129390" result="blur" stdDeviation=".5"/><feComposite id="feComposite129392" in="SourceGraphic" in2="blur" operator="atop" result="composite1"/><feComposite id="feComposite129394" in2="composite1" operator="in" result="composite2"/><feComposite id="feComposite129396" in2="composite2" operator="in" result="composite3"/></filter><linearGradient id="linearGradient17507" x1="143.527" x2="134.235" y1="134.511" y2="136.245" gradientUnits="userSpaceOnUse" xlink:href="#linearGradient17519"/><filter style="color-interpolation-filters:sRGB" id="filter17893" width="1.07" height="1.188" x="-.035" y="-.094"><feGaussianBlur id="feGaussianBlur17885" result="blur" stdDeviation="3.8"/><feComposite id="feComposite17887" in="SourceGraphic" in2="blur" operator="atop" result="composite1"/><feComposite id="feComposite17889" in2="composite1" operator="in" result="composite2"/><feComposite id="feComposite17891" in2="composite2" operator="in" result="composite3"/></filter><filter style="color-interpolation-filters:sRGB" id="filter22479" width="1.083" height="1.17" x="-.042" y="-.085"><feGaussianBlur id="feGaussianBlur22471" result="blur" stdDeviation="5"/><feComposite id="feComposite22473" in="SourceGraphic" in2="blur" operator="atop" result="composite1"/><feComposite id="feComposite22475" in2="composite1" operator="in" result="composite2"/><feComposite id="feComposite22477" in2="composite2" operator="in" result="composite3"/></filter><filter style="color-interpolation-filters:sRGB" id="filter35256" width="1.104" height="1.616" x="-.052" y="-.308"><feGaussianBlur id="feGaussianBlur35248" result="blur" stdDeviation="5"/><feComposite id="feComposite35250" in="SourceGraphic" in2="blur" operator="atop" result="composite1"/><feComposite id="feComposite35252" in2="composite1" operator="in" result="composite2"/><feComposite id="feComposite35254" in2="composite2" operator="in" result="composite3"/></filter><filter style="color-interpolation-filters:sRGB" id="filter37828" width="1.142" height="1.312" x="-.071" y="-.156"><feGaussianBlur id="feGaussianBlur37820" result="blur" stdDeviation="5"/><feComposite id="feComposite37822" in="SourceGraphic" in2="blur" operator="atop" result="composite1"/><feComposite id="feComposite37824" in2="composite1" operator="in" result="composite2"/><feComposite id="feComposite37826" in2="composite2" operator="in" result="composite3"/></filter><filter style="color-interpolation-filters:sRGB" id="filter41249" width="1.097" height="1.197" x="-.048" y="-.099"><feGaussianBlur id="feGaussianBlur41241" result="blur" stdDeviation="5"/><feComposite id="feComposite41243" in="SourceGraphic" in2="blur" operator="atop" result="composite1"/><feComposite id="feComposite41245" in2="composite1" operator="in" result="composite2"/><feComposite id="feComposite41247" in2="composite2" operator="in" result="composite3"/></filter><filter style="color-interpolation-filters:sRGB" id="filter129951" width="1.278" height="1.326" x="-.139" y="-.163"><feGaussianBlur id="feGaussianBlur129943" result="blur" stdDeviation=".7"/><feComposite id="feComposite129945" in="SourceGraphic" in2="blur" operator="atop" result="composite1"/><feComposite id="feComposite129947" in2="composite1" operator="in" result="composite2"/><feComposite id="feComposite129949" in2="composite2" operator="in" result="composite3"/></filter><linearGradient id="linearGradient129960" x1="199.291" x2="201.625" y1="176.773" y2="128.519" gradientUnits="userSpaceOnUse" xlink:href="#linearGradient129958"/><linearGradient id="linearGradient135334" x1="218.51" x2="218.138" y1="192.564" y2="177.075" gradientUnits="userSpaceOnUse" xlink:href="#linearGradient135332"/><linearGradient id="linearGradient138653" x1="206.251" x2="197.787" y1="175.691" y2="111.882" gradientUnits="userSpaceOnUse" xlink:href="#linearGradient138651"/><linearGradient id="linearGradient150321" x1="199.478" x2="199.75" y1="166.717" y2="183.778" gradientUnits="userSpaceOnUse" xlink:href="#linearGradient150319"/></defs><g id="layer2" style="display:inline"><rect style="display:inline;fill:url(#linearGradient54613);fill-opacity:1;stroke:none;stroke-width:.955;stroke-dasharray:none;stroke-opacity:1;filter:url(#filter101008)" id="rect51427" width="256" height="192" x="0" y="0"/><rect style="display:inline;fill:url(#linearGradient51372);fill-opacity:1;stroke:none;stroke-width:1.08937;filter:url(#filter17893)" id="rect243-1" width="260.151" height="96.782" x="-4.429" y="122.985" rx=".489" ry="2.444" transform="matrix(1.0838809,-0.02304337,0.01619446,0.99988843,-9.32906,0)"/><rect style="display:inline;fill:url(#linearGradient31697);fill-opacity:1;stroke:none;stroke-width:.963938;filter:url(#filter103860)" id="rect243-9" width="264.928" height="74.412" x="-9.118" y="187.322" rx=".498" ry="1.879" transform="matrix(0.99984868,-0.01739617,0.0197868,0.99980422,0,0)"/></g><g id="layer3" style="display:inline"><text id="text104542" transform="translate(11.328125,1.5625)" xml:space="preserve" style="font-size:24px;font-family:'Smiley Sans';-inkscape-font-specification:'Smiley Sans';white-space:pre;shape-inside:url(#rect104544);display:inline;fill:url(#linearGradient116464);fill-opacity:1;stroke:none;stroke-width:.955;stroke-dasharray:none;stroke-opacity:1"><tspan id="tspan153058" x="68.447" y="158.987">PJ568</tspan></text><path id="path75741-3-7" style="display:inline;fill:url(#linearGradient100498);fill-opacity:1;stroke:none;stroke-width:.955;stroke-dasharray:none;stroke-opacity:1;filter:url(#filter104040)" d="m 138.4707,112.82617 c -5.19062,1.42226 -10.20687,3.75032 -15.3295,5.52576 -39.705273,14.90352 -79.410541,29.80705 -119.1158094,44.71057 0.7484741,1.59415 0.2855793,4.64859 1.8486613,5.26074 48.6383361,2.00423 97.2766681,4.00847 145.9150081,6.0127 -2.08984,-12.54232 -4.17969,-25.08464 -6.26953,-37.62696 1.85051,-5.70565 -0.79369,-11.36143 -2.76147,-16.56639 -0.56573,-2.20301 -0.39983,-4.76312 -1.41485,-6.74683 -0.82084,-0.60484 -1.90699,-0.54467 -2.87251,-0.56959 z"/><path id="path1279" style="display:inline;fill:#d3d2db;fill-opacity:1" d="m 143.95898,155.39453 c 0.97331,5.82682 1.94662,11.65365 2.91993,17.48047 1.81663,-0.24603 3.73674,-1.03828 4.66739,-2.71194 0.77841,-1.32647 0.7243,-3.07606 -0.15838,-4.33991 -0.72843,-1.20523 -2.0749,-2.10768 -2.23931,-3.5989 -0.1136,-0.98062 0.055,-2.03905 -0.48383,-2.92627 -0.65143,-1.15097 -1.56123,-2.14059 -2.51567,-3.047 -0.59865,-0.52971 -1.37206,-0.91755 -2.19013,-0.85645 z"/><path id="path75741" style="display:inline;fill:url(#linearGradient75749);fill-opacity:1;stroke:none;stroke-width:.966175;stroke-dasharray:none;stroke-opacity:1;filter:url(#filter104116)" d="m 141.84375,111.52734 c -2.4082,0.89453 -4.81641,1.78907 -7.22461,2.6836 3.48698,20.07422 6.97396,40.14843 10.46094,60.22265 2.4694,0.10091 4.9388,0.20183 7.4082,0.30274 0.0976,-1.51718 -0.93307,-2.20712 -2.08935,-2.97676 -3.14454,-2.50131 -3.78869,-6.7333 -3.59265,-10.50896 0.26906,-6.45202 1.29544,-12.98112 -0.12047,-19.38043 -1.03094,-6.19477 -3.52039,-12.09574 -4.05063,-18.37551 -0.27411,-2.38965 0.23966,-4.85001 -0.29193,-7.19448 -0.94206,-1.23133 -3.82025,-3.74582 -0.75766,-4.3383 0.52061,0.16304 0.25083,-0.23404 0.25816,-0.43455 z" transform="matrix(0.99971325,0,0,1.0109934,0.04116441,-1.5231278)"/><path id="path100550" style="display:inline;opacity:.8;fill:url(#linearGradient100565);fill-opacity:1;stroke:none;stroke-width:.960176;stroke-dasharray:none;stroke-opacity:1" d="m 60.458984,141.87891 c -18.792318,7.05404 -37.584635,14.10807 -56.3769528,21.16211 0.1726641,3.5852 -1.6743605,7.98691 1.9042925,10.51953 3.0916176,3.68214 12.2010603,0.45494 13.0557883,4.46475 -3.614799,5.10688 -10.294609,9.32862 -16.1186767,8.27273 -0.1691414,3.39415 -0.3382827,6.78829 -0.5074241,10.18244 49.5182298,1.74479 99.0364588,3.48958 148.5546888,5.23437 0.11003,-4.99023 0.22005,-9.98047 0.33008,-14.9707 -3.09126,-0.95538 -9.42,-2.29004 -9.94845,-4.96557 4.36513,-0.21194 11.16242,-1.39312 10.21638,-7.20175 -0.98257,-3.43313 1.88611,-6.83144 -0.91606,-9.73951 -1.4576,-2.83287 -1.25951,-6.42574 -2.04065,-9.56911 -0.51978,-3.1187 -1.03957,-6.23739 -1.55935,-9.35609 -28.86456,-1.3444 -57.729111,-2.6888 -86.593666,-4.0332 z M 3.8652344,167.41016 c -5.0175781,3.13997 -10.0351563,6.27995 -15.0527344,9.41992 7.7747397,0.72656 15.5494793,1.45313 23.324219,2.17969 -1.336982,-3.80007 -5.1454078,-4.30697 -7.5647021,-7.01089 -1.1575113,-1.38291 -0.755636,-2.98099 -0.7067825,-4.58872 z m 147.7226556,7.10546 c 0.79943,4.48527 -3.79334,7.05284 -7.80079,6.90823 -4.63659,1.166 0.34159,2.9388 2.68357,1.52315 4.20834,-0.82153 8.41669,-1.64307 12.62504,-2.46461 -2.50261,-1.98892 -5.00521,-3.97785 -7.50782,-5.96677 z"/><path id="path17452" style="display:inline;opacity:.65;fill:url(#linearGradient17507);fill-opacity:1;stroke:none;stroke-width:.955;stroke-dasharray:none;stroke-opacity:1;filter:url(#filter104040)" d="m 138.4707,112.82617 c -5.84454,1.65241 -11.37623,4.20849 -17.10742,6.19336 0,18.02083 0,36.04167 0,54.0625 10.14193,0.41792 20.28385,0.83599 30.42578,1.25391 -2.08984,-12.54232 -4.17969,-25.08464 -6.26953,-37.62696 1.83269,-5.6413 -0.76682,-11.35623 -2.76172,-16.5664 -0.88727,-2.27317 0.18376,-6.08442 -2.42925,-7.18578 -0.61016,-0.13261 -1.23765,-0.11462 -1.85786,-0.13063 z"/></g><g id="layer4" style="display:inline"><path id="path150312" style="display:inline;opacity:.4;fill:url(#linearGradient150321);fill-opacity:1" d="m 155.27344,166.93945 c 0.11039,0.13221 0.19871,0.21317 0.30664,0.33594 -0.10768,-0.1096 -0.20582,-0.23106 -0.32422,-0.32812 v 0.0156 c -1.28394,1.69004 -2.56762,3.38028 -3.85156,5.07031 -0.0851,0.84111 -0.0799,1.6906 0.16406,2.54297 0.10784,0.66215 0.10371,1.25739 0.0254,1.80469 0.0999,-0.57951 0.11315,-1.19831 -0.006,-1.86524 2.43041,1.93155 4.86062,3.86338 7.29102,5.79493 l 17.17968,8.35156 -24.875,3.3418 c -0.003,0.1315 -0.005,0.26302 -0.008,0.39453 11.33331,1.168 22.6667,2.3359 34,3.5039 -3.94269,-3.81899 -7.88543,-7.63802 -11.82812,-11.45703 h 58.12304 l -4.45898,4.08203 c 10.81639,-0.17838 21.63283,-0.35677 32.44922,-0.53515 -4.26497,-5.3737 -8.52997,-10.7474 -12.79492,-16.1211 v 2.58985 c -0.0112,-1.00235 -0.0313,-1.98096 -0.0703,-2.90821 -0.14387,0.0457 -0.29129,0.0752 -0.43554,0.11915 0.052,-0.12003 0.0718,-0.25942 -0.002,-0.44141 l -0.10547,-0.13281 c -0.81566,0.41326 -0.96877,0.69727 -0.85742,0.84179 -7.36491,2.04334 -15.17635,2.0257 -22.76562,2.57422 -16.30803,0.81671 -32.72976,0.30425 -48.8086,-2.73047 -5.12544,-1.03036 -10.42021,-1.06205 -15.49804,-2.26367 -0.83779,-0.25429 -1.36317,-0.88868 -1.88867,-1.52734 1.19116,1.22737 1.78795,1.5165 -0.27735,-0.39063 -0.22766,-0.22052 -0.45592,-0.44159 -0.68359,-0.66211 z m -3.75196,9.81641 c -0.0119,0.0527 -0.0275,0.10267 -0.041,0.1543 0.0148,-0.051 0.0279,-0.1025 0.041,-0.1543 z m -1.79882,2.72656 c -0.65686,0.50728 -1.44189,0.90323 -2.28907,1.2168 l 0.3418,-0.0527 c 0.71077,-0.30447 1.3789,-0.68426 1.94727,-1.16406 z"/><path style="display:inline;fill:url(#linearGradient135334);fill-opacity:1" id="path945" d="m 222.08572,177.88413 c -1.61373,-0.47663 -4.04759,-0.68827 -5.31802,-0.23812 -1.27043,0.45015 -1.37625,1.56124 -2.30173,2.24856 -0.92548,0.68732 -2.67148,0.95186 -4.12663,1.26929 -1.45514,0.31743 -2.61913,0.68779 -3.17496,1.19108 -0.55582,0.50329 -0.50291,1.1382 -0.63527,1.64035 -0.13235,0.50215 -0.44981,0.87252 -0.34384,2.48684 0.10597,1.61432 0.63506,4.47139 1.32338,6.00536 0.68832,1.53397 1.53487,1.7456 2.27538,1.77182 0.74051,0.0262 1.37542,-0.13251 1.90412,-0.47628 0.5287,-0.34377 0.95197,-0.87286 1.13724,-1.56023 0.18526,-0.68737 0.13236,-1.53391 0.39683,-2.32803 0.26447,-0.79412 0.84647,-1.53485 1.42912,-1.82576 0.58266,-0.2909 1.16466,-0.13218 1.50816,0.13281 0.34349,0.26499 0.44931,0.63535 0.70371,0.92077 0.2544,0.28542 0.69885,0.50764 1.12161,0.45437 0.42276,-0.0533 0.84604,-0.37073 1.1535,-0.74518 0.30746,-0.37444 0.53873,-0.89481 0.98885,-1.26551 0.45011,-0.37071 1.13793,-0.63526 1.66708,-0.42291 0.52916,0.21234 0.89952,0.90016 1.40243,1.45551 0.50291,0.55535 1.13781,0.97862 1.63986,0.97826 0.50204,-3.5e-4 0.8724,-0.42362 1.03121,-0.92576 0.15881,-0.50215 0.1059,-1.08415 -0.0261,-1.58674 -0.13202,-0.50259 -0.34366,-0.92586 -0.37051,-1.29664 -0.0269,-0.37077 0.13187,-0.68822 0.39656,-1.00592 0.2647,-0.31771 0.63506,-0.63516 0.9789,-0.979 0.34385,-0.34384 0.66131,-0.71421 0.39725,-1.37511 -0.26405,-0.66089 -1.1106,-1.61326 -1.93067,-2.45987 -0.82006,-0.84661 -1.6137,-1.58734 -3.22743,-2.06396 z"/><path style="display:inline;fill:url(#linearGradient138653);fill-opacity:1" id="path415" d="m 177.88411,112.9105 c 2.32871,1.00552 6.66734,3.49229 9.25959,5.76771 2.59226,2.27542 3.4388,4.33887 4.10044,5.37001 0.66163,1.03115 1.13781,1.03115 4.86809,1.40159 3.73027,0.37043 10.71426,1.11116 15.29104,2.14322 4.57678,1.03205 6.74605,2.35478 8.38623,3.06876 1.64018,0.71398 2.75127,0.81979 6.48127,-0.0798 3.73,-0.89964 10.07908,-2.80436 13.70361,-3.75665 3.62452,-0.95228 4.52397,-0.95228 4.97321,-0.92533 0.44924,0.0269 0.44924,0.0799 0.34334,0.26467 -0.1059,0.1848 -0.31754,0.50226 -1.64005,1.29571 -1.32251,0.79345 -3.75632,2.06326 -6.00526,3.99467 -2.24894,1.93141 -4.31239,4.52395 -5.053,7.93718 -0.7406,3.41324 -0.15861,7.64596 0.5562,10.02672 0.7148,2.38076 1.56134,2.90985 2.35464,4.17995 0.7933,1.2701 1.53402,3.28064 2.14287,4.39142 0.60885,1.11078 1.08504,1.32242 1.4022,1.5873 0.31715,0.26489 0.47588,0.58234 0.47548,0.95239 -4.1e-4,0.37005 -0.15914,0.79332 -0.18541,1.37562 -0.0263,0.58231 0.0795,1.32303 0.31817,1.77247 0.23863,0.44943 0.60899,0.60816 1.00581,0.79339 0.39683,0.18523 0.8201,0.39687 0.89876,0.76714 0.0787,0.37028 -0.18588,0.89937 -0.34457,1.34932 -0.15869,0.44996 -0.2116,0.82033 0.2123,1.05807 0.4239,0.23774 1.32335,0.34356 2.11694,0.7673 0.79359,0.42374 1.48141,1.16447 1.90451,1.69365 0.4231,0.52919 0.58183,0.84664 0.89958,1.05781 0.31774,0.21117 0.79392,0.31699 -0.76718,0.79297 -1.56111,0.47599 -5.15892,1.32253 -14.04783,2.01043 -8.88891,0.68791 -23.06852,1.217 -34.54999,0.60865 -11.48148,-0.60835 -20.26437,-2.35435 -26.45494,-3.28037 -6.19058,-0.92603 -9.78839,-1.03185 -11.74638,-1.56038 -1.95799,-0.52852 -2.27544,-1.48088 -2.72481,-2.01048 -0.44938,-0.52959 -1.03137,-0.63541 -0.89972,-1.27036 0.13164,-0.63495 0.97819,-1.79895 2.07406,-3.5916 1.09587,-1.79264 2.39613,-4.13311 3.42831,-5.42967 1.03218,-1.29656 1.7729,-1.5082 2.14294,-2.11608 0.37004,-0.60789 0.37004,-1.61316 0.66162,-1.90425 0.29158,-0.29109 0.87357,0.13218 2.98967,-0.47681 2.11611,-0.609 5.76683,-2.24917 8.30621,-5.7673 2.53938,-3.51812 3.96792,-8.91484 3.75676,-12.8829 -0.21116,-3.96806 -2.06297,-6.50769 -2.93641,-9.84114 -0.87344,-3.33346 -0.76763,-7.46036 -0.55604,-9.76232 0.21158,-2.30197 0.52903,-2.77815 2.85774,-1.77264 z"/><path id="path114783" style="display:inline;opacity:1;fill:#605051;fill-opacity:1" d="m 207.83001,141.02901 c 0.63571,-0.76634 0.44864,-2.03838 0.33634,-3.34789 -0.11231,-1.30952 -0.14972,-2.65637 0.39321,-3.38649 0.54293,-0.73011 1.6653,-0.84234 2.67554,-0.87969 1.01023,-0.0373 1.90813,7e-5 2.65585,-0.31794 0.74772,-0.31801 1.34631,-0.99143 1.5336,-1.66431 0.1873,-0.67287 -0.0372,-1.34629 -1.02825,-1.92663 -0.99107,-0.58035 -2.74945,-1.06671 -4.17122,-1.34743 -1.42176,-0.28072 -2.50673,-0.35555 -3.92838,-0.61733 -1.42165,-0.26178 -3.18003,-0.71073 -4.63937,-0.8045 -1.45934,-0.0938 -2.61913,0.16812 -3.72282,0.41131 -1.10369,0.24319 -2.15123,0.46767 -2.71284,1.0107 -0.56162,0.54302 -0.63644,1.40352 -0.71126,2.37628 -0.0748,0.97275 -0.14964,2.05771 -0.0372,3.18024 0.11242,1.12253 0.41172,2.28231 0.46762,3.44195 0.0559,1.15964 -0.13117,2.31942 1.38473,3.17961 1.5159,0.8602 4.73336,1.42138 7.07152,1.57086 2.33816,0.14948 3.79723,-0.1124 4.43294,-0.87874 z m 6.54734,13.28176 c 1.27271,-0.43045 3.55491,0.35522 5.55651,1.272 2.0016,0.91678 3.72257,1.96433 4.67609,3.23658 0.95352,1.27226 1.14057,2.76875 0.67311,3.72213 -0.46746,0.95339 -1.58983,1.36492 -3.81564,0.52357 -2.2258,-0.84134 -5.5555,-2.93643 -7.09008,-4.80706 -1.53458,-1.87062 -1.27269,-3.51677 1e-5,-3.94722 z m 19.34238,4.28429 c -0.11256,0.33664 -0.0752,1.45903 -0.48614,1.73948 -0.41099,0.28046 -1.27148,-0.28073 -1.57118,-0.13085 -0.2997,0.14988 -0.0378,1.01036 0.54252,1.58987 0.58033,0.57951 1.47823,0.87881 1.8903,0.4114 0.41207,-0.46741 0.33505,-1.77671 0.167,-2.63716 -0.16805,-0.86044 -0.42993,-1.30939 -0.5425,-0.97274 z m -26.58217,-20.46564 c 1.14094,-1.79522 1.10353,-4.07742 0.73755,-5.85872 -0.36598,-1.7813 -1.0925,-3.11964 -2.13983,-3.88711 -1.04734,-0.76747 -2.4316,-0.99195 -3.64775,-0.97342 -1.21614,0.0185 -2.26368,0.28042 -3.25549,0.87912 -0.99181,0.59871 -1.92712,1.53402 -2.4884,2.48845 -0.56127,0.95443 -0.74833,1.92715 -0.84178,2.8813 -0.0935,0.95416 -0.0935,1.96429 0.8985,3.44213 0.99197,1.47783 2.97482,3.46069 5.12576,3.7968 2.15094,0.33611 4.4705,-0.97332 5.61144,-2.76855 z m -28.30251,-21.13843 c 1.38477,0.71133 3.70437,2.46975 5.55619,4.28444 1.85182,1.81469 3.23608,3.6853 3.17986,4.82575 -0.0562,1.14045 -1.55271,1.55198 -2.26383,2.13253 -0.71113,0.58055 -0.63631,1.3288 -1.38434,1.96418 -0.74803,0.63538 -2.31935,1.15916 -3.34815,1.02889 -1.0288,-0.13027 -1.51516,-0.91593 -1.98306,-2.30024 -0.4679,-1.3843 -0.91685,-3.36715 -1.25364,-5.46235 -0.3368,-2.09519 -0.56127,-4.30251 -0.449,-5.57516 0.11226,-1.27266 0.56121,-1.60937 1.94597,-0.89804 z"/><path id="path82612" style="display:inline;opacity:1;fill:url(#linearGradient129960);fill-opacity:1" d="m 191.74209,173.12893 c -0.37445,0.28082 -0.59893,0.61754 -0.59863,1.0857 3.1e-4,0.46815 0.22478,1.06675 1.68423,1.49645 1.45946,0.4297 4.15315,0.69159 5.51814,0.63586 1.36498,-0.0557 1.4024,-0.42985 1.49587,-0.82286 0.0935,-0.39301 0.24312,-0.80454 0.0194,-1.14128 -0.22378,-0.33674 -0.82238,-0.59862 -2.00093,-0.91678 -1.17855,-0.31815 -2.93693,-0.69227 -4.07837,-0.76732 -1.14145,-0.0751 -1.66522,0.14942 -2.03966,0.43023 z m 10.53696,-43.36241 c -0.0764,0.0419 -0.0768,0.0421 -1.07069,0.79042 -0.99387,0.7483 -2.77353,2.55634 -4.15371,4.61114 -1.38018,2.0548 -2.82065,5.39593 -3.60132,7.12058 -0.78066,1.72464 -0.95985,2.10225 -1.23332,2.70193 -0.27346,0.59967 -0.71295,1.60355 -1.29643,2.44875 -0.58349,0.8452 -1.71513,1.94657 -2.77392,2.78323 -1.05879,0.83666 -2.00951,1.44023 -2.80577,1.7323 -0.79626,0.29207 -1.90443,0.44838 -4.38826,0.91978 -2.48384,0.4714 -6.42955,1.41723 -9.6296,2.463 -3.20005,1.04577 -5.84571,2.15259 -7.4252,2.80848 -1.5795,0.6559 -2.02192,0.83825 -2.00157,0.77114 0.0204,-0.0671 0.30349,-1.00079 0.55599,-1.439 0.25249,-0.43821 0.59225,-0.80614 0.62987,-0.90448 0.0376,-0.0983 -0.0821,-0.43468 -0.25746,-0.75521 -0.17532,-0.32053 -0.17532,-0.32053 -0.19537,-0.29943 -0.0201,0.0211 -0.0986,0.10368 -0.20979,0.20977 -0.11124,0.10609 -0.26491,0.23887 -0.43831,0.39214 -0.17339,0.15328 -0.36791,0.32918 -0.58202,0.54446 -0.21412,0.21528 -0.44757,0.47631 -0.70606,0.79694 -0.2585,0.32062 -0.53866,0.70701 -0.82695,1.13282 -0.28828,0.42582 -0.58413,0.89467 -1.03229,1.61992 -0.44815,0.72526 -1.06613,1.74669 -1.44234,2.42737 -0.37621,0.68068 -0.52682,0.98042 -0.51987,1.14484 0.007,0.16442 0.21764,0.40376 0.50229,0.65118 0.28464,0.24742 0.58757,0.44767 0.79012,0.48964 0.20255,0.042 0.64411,-0.0432 1.19278,-0.13177 0.54868,-0.0886 1.23529,-0.17784 1.57251,-0.052 0.33722,0.12582 1.07933,1.00587 1.71878,1.97 0.63945,0.96413 1.23286,2.12465 1.62695,2.49694 0.39409,0.37229 0.65106,0.47029 1.69413,0.58067 1.04307,0.11037 3.50204,-0.25159 4.90773,-0.43374 1.4057,-0.18216 1.84231,-0.23108 2.54275,-0.29858 0.70044,-0.0675 1.7293,-0.15056 2.36368,-0.0818 0.63439,0.0688 1.4415,0.31215 1.64045,0.28135 0.19895,-0.0308 0.86205,-0.52038 0.96621,-0.54469 0.10415,-0.0243 0.58248,0.22784 1.18639,0.5016 0.60391,0.27375 1.4457,0.59583 2.48384,0.88807 1.03814,0.29224 2.29665,0.52553 3.48064,0.60763 1.18398,0.0821 2.37558,0.0285 3.20384,-0.0565 0.82827,-0.085 1.39278,-0.17552 1.57467,-0.10183 0.18188,0.0737 0.63685,0.8384 0.82929,1.41229 0.19243,0.57389 0.27322,1.23827 0.47106,1.55018 0.19784,0.31191 0.69177,0.48767 0.64832,0.61789 -0.0435,0.13022 -0.5848,0.10091 -0.75713,0.15339 -0.17233,0.0525 -0.20558,0.13807 -0.14325,0.49482 0.0623,0.35675 0.69029,1.15529 1.63609,1.61225 0.94579,0.45696 5.70335,0.51892 6.12115,0.3538 0.41781,-0.16511 0.50351,-1.2014 0.20008,-1.47488 -0.30344,-0.27348 -1.34627,-0.48332 -1.32857,-0.59729 0.0177,-0.11397 1.09346,-0.10243 1.30481,-0.10017 0.21135,0.002 0.13964,-0.18702 -0.21221,-0.8648 -0.35185,-0.67778 -0.6951,-1.19182 -0.62662,-1.26103 0.0685,-0.0692 0.85878,-0.68244 0.81335,-0.69843 -0.0454,-0.016 -1.29438,-0.45553 -1.35983,-0.47856 -0.0654,-0.023 0.42594,-0.68029 0.7118,-1.03139 0.28587,-0.3511 0.49983,-0.59261 0.83825,-0.74496 0.33842,-0.15235 2.05925,-0.12471 2.46091,0.0165 0.40166,0.14116 0.47463,0.19509 0.52274,0.22464 0.0481,0.0296 0.15096,0.0796 0.84724,0.27637 0.69627,0.19674 2.28814,0.34332 4.22342,0.38495 1.93528,0.0416 4.27884,-0.0724 5.48838,-0.18476 1.20953,-0.11236 1.29807,-0.12454 1.68815,-0.22361 0.39008,-0.0991 1.28631,-0.43491 1.81028,-0.46145 0.52397,-0.0265 1.58221,0.24981 2.49614,0.43547 0.91394,0.18566 1.89046,0.3284 2.59852,0.42026 0.70807,0.0919 1.21416,0.14922 1.65288,0.12946 0.43873,-0.0198 1.17005,-0.1686 2.22608,-0.28624 1.05603,-0.11763 2.80526,-0.1541 3.86316,-0.38018 1.05791,-0.22608 1.82709,-0.55705 1.99007,-0.83784 0.16297,-0.28079 0.10998,-1.20868 -0.0197,-1.33139 -0.12972,-0.12272 -0.92112,-0.1622 -1.41892,-0.13363 -0.4978,0.0286 -0.86643,0.088 -1.35474,-0.0288 -0.4883,-0.11686 -1.83604,-1.22469 -2.51273,-2.27147 -0.67669,-1.04679 -1.14543,-2.76469 -1.38659,-3.83982 -0.24116,-1.07514 -0.35075,-1.69221 -0.61248,-1.94937 -0.26173,-0.25716 -2.58281,-1.11349 -4.48068,-2.04981 -1.89788,-0.93632 -3.58528,-2.00448 -4.76163,-3.00747 -1.17636,-1.00299 -2.16873,-2.11995 -2.9494,-2.68062 -0.78067,-0.56067 -1.80411,-0.9859 -2.42539,-1.11838 -0.62129,-0.13248 -1.03516,-0.14818 -1.27523,-0.26852 -0.24008,-0.12034 -0.55094,-1.15706 -0.57635,-2.63214 -0.0254,-1.47507 0.85846,-4.97163 0.87102,-6.10722 0.0126,-1.13558 -0.10805,-1.65684 -0.29548,-2.24661 -0.18743,-0.58976 -0.51949,-1.40581 -0.97869,-2.48884 -0.45919,-1.08303 -1.10092,-2.5373 -1.40835,-3.53998 -0.30742,-1.00268 -0.49435,-2.02639 -0.6943,-2.33486 -0.19994,-0.30848 -0.97937,-0.77389 -1.55641,-0.97531 -0.57704,-0.20143 -0.96954,-0.25658 -1.05745,-0.26894 -0.0879,-0.0123 -0.088,-0.0123 -0.16439,0.0296 z m 16.01782,15.07646 c 0.0293,0.17697 0.0911,0.5502 0.1096,0.89217 0.0185,0.34197 -0.0139,0.64223 0.24204,0.75502 0.25593,0.11278 0.79328,0.0504 1.29119,-0.23776 0.49792,-0.28813 0.83574,-0.60397 0.63019,-0.68449 -0.20554,-0.0805 -1.23927,-0.48548 -1.77076,-0.69369 -0.5315,-0.20821 -0.53155,-0.20821 -0.50226,-0.0312 z m 15.14649,5.40116 c 0,0 0.007,0.10495 0.0173,0.24584 0.01,0.14088 0.0119,0.14088 0.0669,0.41972 0.0549,0.27884 0.2949,1.49689 0.77081,3.48677 0.47591,1.98988 1.23109,4.6655 1.93419,6.47729 0.7031,1.81178 1.44837,3.30042 1.87884,4.71386 0.43048,1.41345 0.72882,3.7628 1.04382,4.76042 0.31501,0.99762 0.43313,1.21816 0.64292,1.27087 0.20979,0.0527 1.05253,-0.21287 1.39953,-0.47661 0.34699,-0.26374 0.78695,-0.89963 1.08803,-1.21624 0.30108,-0.3166 0.81549,-0.71208 0.89625,-0.84159 0.0808,-0.1295 0.004,-0.34293 -0.2815,-0.65282 -0.28536,-0.30989 -0.99991,-0.70459 -1.1848,-0.92423 -0.18489,-0.21963 -0.28405,-0.55692 -0.32658,-0.96803 -0.0425,-0.4111 -0.003,-0.97903 -0.0752,-1.19682 -0.0725,-0.21779 -0.37799,-0.5551 -0.66465,-0.86241 -0.28666,-0.3073 -0.55288,-0.58444 -0.74775,-0.94644 -0.19488,-0.36199 -0.35462,-1.0914 -0.41461,-1.64708 -0.06,-0.55568 -0.0606,-0.99426 -0.12584,-1.30633 -0.0652,-0.31207 -0.20802,-0.6355 -0.3989,-0.96976 -0.19088,-0.33426 -0.46501,-0.71804 -1.12136,-1.76332 -0.65635,-1.04529 -1.67808,-2.91137 -2.37223,-4.14581 -0.69414,-1.23443 -1.12803,-1.98603 -1.4969,-2.59927 -0.36886,-0.61325 -0.49899,-0.813 -0.51366,-0.8355 -0.0147,-0.0225 -0.0146,-0.0225 -0.0146,-0.0225 z m -77.2041,14.23376 c -0.003,0.003 -0.0232,0.026 -0.0729,0.0972 -0.0497,0.0711 -0.2214,0.3505 -0.35968,0.58848 -0.13828,0.23799 -0.28314,0.50214 -0.39121,0.7294 -0.10808,0.22727 -0.18538,0.41739 -0.21541,0.53059 -0.03,0.1132 -0.0395,0.18482 -0.035,0.2453 0.005,0.0605 0.0213,0.11854 0.0574,0.19018 0.036,0.0717 0.10554,0.16367 0.18867,0.2544 0.0831,0.0907 0.18546,0.18322 0.29341,0.28556 0.10795,0.10234 0.22051,0.21425 0.33486,0.34226 0.11435,0.12801 0.23371,0.27868 0.36758,0.44207 0.13386,0.1634 0.28412,0.34077 0.4025,0.40992 0.11838,0.0692 0.19642,0.0718 0.41756,-0.0446 0.22113,-0.1164 0.6715,-0.71249 0.67524,-0.97151 0.004,-0.25902 -0.59871,-1.34683 -0.95511,-1.95354 -0.35639,-0.60671 -0.5632,-0.93921 -0.62053,-1.0259 -0.0573,-0.0867 -0.0773,-0.11346 -0.0809,-0.11828 -0.004,-0.005 -0.003,-0.005 -0.006,-0.002 z"/><path id="path134850" style="display:inline;opacity:1;fill:#1b0c10;fill-opacity:1" d="m 195.35388,163.75294 c 0.40654,0.50515 0.90966,0.92376 1.39681,1.35017 0.48689,0.36236 1.04928,0.60019 1.56248,0.92026 0.76806,0.42457 1.50506,0.91586 2.31129,1.26457 0.60268,0.21627 1.18855,-0.53671 0.86251,-1.07396 -0.26962,-0.40803 -0.79719,-0.50235 -1.17959,-0.77419 -0.67778,-0.38385 -1.3501,-0.78165 -2.02733,-1.16222 -0.61432,-0.26156 -1.05755,-0.77374 -1.54284,-1.2108 -0.17662,-0.28569 -0.70225,-0.83665 -1.18557,-0.56619 -0.49647,0.20624 -0.60993,0.90058 -0.19776,1.25236 z m -0.74065,-4.11733 c 0.21461,0.93761 -0.0394,1.92482 0.26484,2.8478 0.0797,0.21871 0.0152,0.57727 0.12021,0.14801 0.10665,-0.20008 -0.61672,0.22614 -0.87429,0.26111 -0.72929,0.27192 -1.4944,0.43507 -2.20835,0.74734 -0.53122,0.21658 -1.09081,0.38507 -1.58808,0.6713 -0.51648,0.3641 -0.24919,1.27593 0.37446,1.32056 0.53218,-0.002 0.98956,-0.3461 1.49009,-0.49386 0.56697,-0.23313 1.14484,-0.42949 1.73525,-0.59406 0.7283,-0.27478 1.52139,-0.44022 2.16049,-0.90223 0.46101,-0.40154 0.37227,-1.06417 0.232,-1.59043 -0.21152,-0.6846 -0.035,-1.41446 -0.14755,-2.11614 -0.0515,-0.49637 -0.10634,-1.1746 -0.67379,-1.34638 -0.54547,-0.17453 -1.13154,0.41009 -0.91707,0.95586 l 0.0318,0.091 z"/><path style="display:inline;opacity:1;fill:#1b1117;fill-opacity:1" id="path103003" d="m 193.03267,152.73881 c 0.72956,0.31801 1.55264,1.17851 2.69374,1.45911 1.1411,0.28059 2.60021,-0.0187 3.55424,0.11223 0.95403,0.13094 1.40299,0.69214 1.49653,1.40299 0.0935,0.71085 -0.16837,1.57135 -0.89792,1.83324 -0.72955,0.26189 -1.92677,-0.0748 -2.35702,0.22448 -0.43025,0.2993 -0.0935,1.23463 -0.44896,1.92678 -0.35543,0.69214 -1.403,1.14109 -2.35703,0.76697 -0.95403,-0.37413 -1.81453,-1.57135 -1.79582,-2.33832 0.0187,-0.76697 0.91662,-1.10369 0.71084,-1.62747 -0.20577,-0.52379 -1.51523,-1.23464 -2.13254,-1.87065 -0.61731,-0.63602 -0.54249,-1.19723 -0.18706,-1.59006 0.35543,-0.39284 0.99145,-0.61731 1.721,-0.2993 z"/><path id="ellipse42151" style="display:inline;opacity:1;fill:#88837c" d="m 187.04883,139.75977 c -1.59717,-0.0467 -3.40122,0.46533 -4.1903,1.98333 -2.13213,3.93898 4.24927,7.89666 7.43259,5.06098 1.21193,-0.79153 2.34119,-2.2989 1.26747,-3.58893 -0.68919,-1.55131 -1.78073,-3.23199 -3.64514,-3.38335 -0.28599,-0.0448 -0.57525,-0.0676 -0.86462,-0.072 z m 28.58398,3.14453 c -1.9324,-0.0349 -3.89685,0.95969 -4.70928,2.77256 -0.42908,1.28286 -2.01943,2.85629 -0.47082,3.96664 3.16682,3.7327 10.1058,0.11806 8.43348,-4.64972 -0.18327,-1.67001 -1.88963,-2.1183 -3.25338,-2.08948 z"/><path id="ellipse51147" style="display:inline;opacity:1;fill:#bdb8b4;fill-opacity:1" d="m 183.05469,141.44727 c -2.40934,3.12233 2.46351,7.53219 5.76467,6.05348 l 1.31439,-0.5969 1.08111,-0.93705 c -3.26849,2.96484 -9.1723,-0.0461 -8.16017,-4.51953 z m 26.89062,6.39843 c -0.90023,1.54346 1.68466,2.74825 2.80438,3.15672 1.60208,0.45425 3.41108,0.0505 4.66633,-1.04148 -2.4711,1.79445 -6.33261,0.74003 -7.47071,-2.11524 z"/><path id="path65383" style="display:inline;opacity:1;fill:#000;fill-opacity:1" d="m 187.40625,139.7793 c -1.31987,0.79986 -2.6148,2.43005 -1.90278,4.03753 0.32937,1.05196 1.56761,1.99174 2.50125,0.94783 1.35795,-1.01844 1.66128,-2.97496 1.21206,-4.52833 -0.56095,-0.28301 -1.18752,-0.41227 -1.81053,-0.45703 z m 27.57617,3.16406 c -0.95446,0.18693 -2.28306,0.30313 -2.66977,1.34211 -0.64273,1.29461 -0.90589,3.23707 0.47358,4.16071 1.17471,0.75677 2.51251,-0.43329 2.85805,-1.55082 0.45237,-1.30831 0.0929,-2.83324 -0.66186,-3.952 z"/><path id="path67328" style="display:inline;opacity:1;fill:#c7bebf" d="m 187.81055,141.07031 c -0.789,0.31851 0.26367,1.55366 0.27343,0.48438 -0.005,-0.17791 -0.0547,-0.45655 -0.27343,-0.48438 z m -0.75782,0.74414 c -0.78552,0.21506 0.20515,1.49969 0.28907,0.43555 4e-4,-0.17488 -0.0801,-0.42376 -0.28907,-0.43555 z m 27.55469,1.84375 c -1.02741,0.40097 0.5028,1.32877 0.32696,0.28612 -0.0368,-0.1484 -0.16509,-0.28731 -0.32696,-0.28612 z m -0.87304,0.81446 c -0.94012,0.997 0.94913,0.7322 0,0 z"/></g><metadata id="metadata9"/></svg>