<?xml version="1.0" encoding="UTF-8" standalone="no"?>
<!-- Created with Inkscape (http://www.inkscape.org/) -->

<svg
   width="256"
   height="255.99998"
   viewBox="0 0 67.733334 67.733329"
   version="1.1"
   id="svg5"
   inkscape:version="1.3.1 (91b66b0783, 2023-11-16)"
   sodipodi:docname="党徽.svg"
   xml:space="preserve"
   inkscape:export-filename="..\..\Desktop\党徽.svg"
   inkscape:export-xdpi="96"
   inkscape:export-ydpi="96"
   xmlns:inkscape="http://www.inkscape.org/namespaces/inkscape"
   xmlns:sodipodi="http://sodipodi.sourceforge.net/DTD/sodipodi-0.dtd"
   xmlns="http://www.w3.org/2000/svg"
   xmlns:svg="http://www.w3.org/2000/svg"
   xmlns:rdf="http://www.w3.org/1999/02/22-rdf-syntax-ns#"
   xmlns:cc="http://creativecommons.org/ns#"
   xmlns:dc="http://purl.org/dc/elements/1.1/"><sodipodi:namedview
     id="namedview7"
     pagecolor="#ffffff"
     bordercolor="#000000"
     borderopacity="0.25"
     inkscape:showpageshadow="2"
     inkscape:pageopacity="0.0"
     inkscape:pagecheckerboard="0"
     inkscape:deskcolor="#d1d1d1"
     inkscape:document-units="px"
     showgrid="false"
     inkscape:zoom="2.4836981"
     inkscape:cx="98.039292"
     inkscape:cy="145.7504"
     inkscape:window-width="1440"
     inkscape:window-height="878"
     inkscape:window-x="-6"
     inkscape:window-y="-6"
     inkscape:window-maximized="1"
     inkscape:current-layer="svg5" /><defs
     id="defs2" /><path
     style="fill:#ed2c25;fill-opacity:1"
     d="M 3.590706,67.42293 C -1.896222,65.464339 -0.65707101,57.649211 5.2005323,57.270012 6.3794467,57.193694 7.4390175,56.652295 6.8286104,56.438128 5.0908073,54.765193 3.6571602,52.794682 2.2279933,50.854073 L 7.54307,45.546784 8.4705347,46.493053 C 16.46617,54.650797 30.364094,58.442581 40.301331,55.177479 41.244196,54.86768 44.917483,53.44838 44.696702,53.227778 L 22.269442,30.818665 15.829903,37.083503 6.3513466,27.60041 23.113999,10.837851 l 1.27,0.270553 c 2.894129,0.616546 6.30139,-0.151432 8.736907,-1.9692525 l 0.862908,-0.6440566 5.213531,5.2216841 -8.461595,8.466676 22.472146,22.351209 c 0,0 1.58587,-3.038559 2.041095,-4.487333 1.443647,-4.594475 1.483272,-9.634679 0.121143,-15.409332 C 52.849991,13.95402 45.283646,4.9905112 34.967331,0.46771639 L 33.951332,0.02228993 34.74013,0.01114497 C 59.935369,-0.34483975 76.193559,29.611758 62.756745,51.63328 l -0.973389,1.595282 6.031606,6.038596 -8.460645,8.465725 -6.04855,-5.92622 c -0.04537,-0.04445 -0.824732,0.432554 -1.691616,0.96123 -11.426355,6.96845 -26.546489,6.548527 -38.27585,-1.063012 -1.932294,-1.253925 -1.802187,-1.219929 -2.364685,-0.617884 -0.374564,0.400898 -0.436994,0.625199 -0.448855,1.612657 -0.04183,3.482086 -3.607298,5.910782 -6.934055,4.723276 z"
     id="path2"
     inkscape:label="党徽临摹"
     sodipodi:nodetypes="sssccsssccccssccccssscsscccssssss" /><metadata
     id="metadata132"><rdf:RDF><cc:License
         rdf:about="http://creativecommons.org/licenses/by-sa/4.0/"><cc:permits
           rdf:resource="http://creativecommons.org/ns#Reproduction" /><cc:permits
           rdf:resource="http://creativecommons.org/ns#Distribution" /><cc:requires
           rdf:resource="http://creativecommons.org/ns#Notice" /><cc:requires
           rdf:resource="http://creativecommons.org/ns#Attribution" /><cc:permits
           rdf:resource="http://creativecommons.org/ns#DerivativeWorks" /><cc:requires
           rdf:resource="http://creativecommons.org/ns#ShareAlike" /></cc:License><cc:Work
         rdf:about=""><cc:license
           rdf:resource="http://creativecommons.org/licenses/by-sa/4.0/" /><dc:creator><cc:Agent><dc:title>PJ568</dc:title></cc:Agent></dc:creator><dc:rights><cc:Agent><dc:title>PJ568</dc:title></cc:Agent></dc:rights><dc:contributor><cc:Agent><dc:title>PJ568</dc:title></cc:Agent></dc:contributor></cc:Work></rdf:RDF></metadata></svg>
