<?xml version="1.0" encoding="UTF-8"?>
<!-- Created with Inkscape (http://www.inkscape.org/) -->
<svg width="256" height="256" version="1.1" viewBox="0 0 67.7 67.7" xml:space="preserve" xmlns="http://www.w3.org/2000/svg" xmlns:cc="http://creativecommons.org/ns#" xmlns:dc="http://purl.org/dc/elements/1.1/" xmlns:rdf="http://www.w3.org/1999/02/22-rdf-syntax-ns#"><circle cx="33.9" cy="33.9" r="26.5" fill="#fff" stroke-width=".265"/><path d="m50.4 45.4c-2.31-0.11-4.57 1.63-4.96 3.92-0.462 2.11 0.511 4.52 2.47 5.52 1.89 1.07 4.5 0.784 6.02-0.818 1.51-1.48 2.01-3.94 1.04-5.84-0.705-1.55-2.29-2.69-4.01-2.75-0.185-0.016-0.371-0.0236-0.557-0.0235zm0.412 1.3c0.744 0.0399 1.16 0.863 1.09 1.54 0.121 0.697 1.11 0.577 1.33 1.22 0.291 0.707 0.0938 1.49-0.0239 2.21-0.166 0.713-0.743 1.41-1.53 1.4-1.2 0.114-2.41 0.0174-3.6 0.0552-0.532-0.0727-0.929-0.662-0.764-1.18-0.0049-0.694-0.062-1.4 0.0897-2.08 0.337-0.624 1.14-0.419 1.71-0.568 0.622-0.171 0.871-0.853 0.85-1.44-0.0264-0.52 0.252-1.15 0.849-1.15zm0.142 0.642c-0.619 0.426-0.295 1.31-0.727 1.85-0.362 0.555-1.07 0.774-1.7 0.746-0.651 0.21-0.526 1.01-0.577 1.54-0.132 0.627 0.379 1.23 1.03 1.13 1.02-0.0775 2.1 0.118 3.08-0.278 0.642-0.409 0.705-1.25 0.776-1.93 0.0242-0.735-0.665-1.03-1.2-1.29-0.48-0.408-0.268-1.09-0.484-1.59-0.0471-0.0708-0.109-0.132-0.184-0.174zm0.85 2.77c-0.339 0.603-0.866 1.11-1.48 1.43-0.532 0.151-0.66-0.963-0.0462-0.618 0.606-0.0557 0.968-0.637 1.53-0.811z" fill="#803300" stroke-width=".132"/><path d="m36.1 7.53c-0.47 0-0.662 0.309-0.439 0.707 0.0667 0.119 0.264 0.217 0.439 0.217 0.36 0 0.59-0.316 0.495-0.679-0.046-0.176-0.186-0.245-0.495-0.245zm-4.47 0.0129c-0.0509-6.54e-4 -0.107 0.00241-0.167 0.0093-0.384 0.044-0.542 0.33-0.395 0.712 0.134 0.35 0.857 0.237 0.954-0.149 0.0946-0.377-0.0354-0.567-0.392-0.572zm8.89 0.647c-0.544 0-1.04 1.61-0.595 1.93 0.328 0.24 0.415 0.231 0.718-0.0724 0.559-0.559 0.473-1.86-0.122-1.86zm-13.5 0.0176c-8e-3 -2.8e-5 -0.0159 3.28e-4 -0.0238 0.00103-0.116 0.0104-0.218 0.101-0.292 0.296-0.116 0.306 0.288 2.13 0.568 2.56 0.214 0.331 0.808 0.131 0.856-0.288 0.129-1.13-0.607-2.57-1.11-2.57zm-4.14 1.58c-0.0106-2.9e-4 -0.021-9.9e-6 -0.0315 5.17e-4 -0.363 0.0183-0.65 0.511-0.365 0.855 0.0875 0.105 0.264 0.192 0.391 0.192 0.525 0 0.688-0.687 0.231-0.975-0.0751-0.0473-0.152-0.0698-0.226-0.0718zm22 0.0568c-0.41 0-0.585 0.348-0.408 0.811 0.048 0.125 0.209 0.182 0.44 0.155 0.579-0.0666 0.549-0.966-0.032-0.966zm-13 0.792c-0.476 0-0.644 0.239-0.476 0.676 0.157 0.408 0.936 0.174 0.936-0.281 0-0.364-0.037-0.396-0.46-0.396zm7.92 0.66c-0.507 0-0.687 0.312-0.387 0.673 0.298 0.359 0.847 0.18 0.847-0.277 0-0.364-0.037-0.396-0.46-0.396zm-4.11 0.198c-0.402 0-0.755 1.56-0.427 1.89 0.168 0.168 0.808 0.087 0.884-0.112 0.364-0.949 0.151-1.78-0.457-1.78zm13.2 0.55c-0.3 0.0082-0.717 0.288-1.06 0.799-0.718 1.08-0.813 1.28-0.722 1.57 0.24 0.756 2.17-0.912 2.17-1.87 0-0.342-0.162-0.5-0.395-0.494zm-29.9 0.0031c-0.0081-3.61e-4 -0.0158-3.5e-4 -0.0232 5.17e-4 -0.682 0.0789-0.544 0.664 0.516 2.19 1.05 1.51 1.59 1.8 1.68 0.884 0.0614-0.629-1.66-3.06-2.17-3.08zm9.28 0.114c-0.582-0.0037-0.612 1.53 0.0605 2.79 0.26 0.486 0.913 0.249 0.913-0.332 0-0.568-0.485-2.22-0.691-2.35-0.105-0.0686-0.199-0.1-0.283-0.101zm3.77 0.27c-0.135-0.0047-0.275 0.106-0.403 0.351-0.13 0.249 7.68e-4 2.39 0.162 2.65 0.486 0.786 0.997-0.0751 0.886-1.49-0.0722-0.927-0.348-1.5-0.645-1.51zm-7.8 0.125c-0.264 0.0043-0.548 0.193-0.548 0.427 0 0.347 1.67 4.08 1.89 4.22 0.702 0.464 0.924-0.376 0.405-1.54-0.918-2.05-1.37-2.97-1.51-3.05-0.0725-0.0448-0.158-0.064-0.246-0.0625zm19.3 0.0083c-0.0312 9.4e-5 -0.0635 2e-3 -0.0966 0.0067-0.368 0.0519-0.51 0.532-0.251 0.845 0.206 0.248 0.452 0.242 0.711-0.0165 0.344-0.344 0.104-0.836-0.364-0.835zm-4.38 0.646c-0.344-0.0023-0.342 0.045-0.943 2.14-0.0356 0.124-1.3e-4 0.347 0.0791 0.495 0.429 0.801 0.991 0.202 1.32-1.41 0.205-1 0.134-1.23-0.384-1.23-0.0263 0-0.0505-3.64e-4 -0.0734-5.16e-4zm3.56 1.25c-0.614 0-1.71 2.34-1.29 2.76 0.325 0.325 0.757-0.0118 1.25-0.974 0.626-1.23 0.641-1.78 0.0465-1.78zm-7.19 0.0878c-0.271-0.0079-0.531 0.211-0.531 0.578 0 0.167 0.0741 0.334 0.165 0.372 0.526 0.22 1.08-0.243 0.81-0.674-0.116-0.184-0.282-0.271-0.444-0.275zm14.5 0.505c-0.77 2e-3 -1.55 0.36-2.08 1.15-0.887 1.34-0.278 3.28 1.2 3.81 1.7 0.615 3.42-0.586 3.42-2.39 0-1.59-1.25-2.58-2.54-2.58zm-32.4 0.0264c-0.64-0.0059-1.28 0.216-1.78 0.674-1.37 1.28-0.899 3.63 0.857 4.26 2.47 0.88 4.53-2.05 2.85-4.05-0.487-0.578-1.21-0.878-1.93-0.884zm28.7 0.392c-0.393-0.0066-0.556 0.244-0.422 0.666 0.146 0.46 0.916 0.271 0.916-0.224 0-0.347-0.0512-0.401-0.412-0.436-0.0283-0.0028-0.0554-0.0047-0.0816-0.0052zm3.75 0.499c0.278 0.0057 0.564 0.089 0.831 0.265 0.87 0.573 1.01 1.69 0.302 2.46-1.04 1.14-2.72 0.47-2.73-1.08-0.0061-0.98 0.762-1.66 1.6-1.65zm-32.4 0.0155c0.514 0.0096 1.02 0.285 1.35 0.824 0.478 0.784 0.274 1.63-0.521 2.17-1.45 0.976-3.2-0.771-2.22-2.22 0.355-0.526 0.876-0.783 1.39-0.773zm11.5 0.145c-0.378-0.0014-0.571 0.326-0.415 0.739 0.217 0.575 0.979 0.242 0.89-0.389-0.0309-0.218-0.143-0.316-0.397-0.345-0.0268-0.0031-0.0529-0.0051-0.078-0.0052zm-7.32 0.13c-0.0127-2.05e-4 -0.0256 1.08e-4 -0.0382 1e-3 -0.203 0.0148-0.405 0.174-0.434 0.465-0.0306 0.315 0.0184 0.432 0.198 0.472 0.415 0.0941 0.72-0.148 0.675-0.536-0.0311-0.269-0.212-0.399-0.402-0.403zm10.5 0.336c-0.082 0.0014-0.172 0.0189-0.269 0.0548-0.287 0.107-0.417 0.616-0.209 0.823 0.195 0.195 0.82 0.0854 0.897-0.157 0.136-0.429-0.0631-0.727-0.419-0.721zm5.77 0.455c-0.0129-1.62e-4 -0.0254-1.03e-4 -0.0377 5.17e-4 -0.345 0.0175-0.46 0.365-1.01 2.39-0.458 1.69-0.533 2.12-0.399 2.28 0.391 0.471 0.957 0.0842 1.16-0.795 0.0684-0.289 0.284-1.11 0.477-1.83 0.425-1.57 0.411-1.98-0.0698-2.04-0.0455-0.0053-0.0873-0.0088-0.126-0.0093zm-20.6 0.0315c-0.17 0.0056-0.333 0.0982-0.411 0.301-0.0417 0.109-0.0126 0.315 0.0646 0.459 0.218 0.407 0.837 0.286 0.89-0.174 0.0421-0.365-0.26-0.596-0.543-0.587zm32.6 0.0078c-0.0949-0.0022-0.197 0.0214-0.298 0.0754-0.257 0.138-0.361 0.652-0.17 0.842 0.249 0.249 0.896 0.0152 0.937-0.338 0.0388-0.336-0.185-0.573-0.469-0.579zm-14.8 0.427c-0.113 0.0046-0.251 0.0616-0.416 0.166-0.246 0.156-0.591 3.82-0.384 4.07 0.556 0.67 0.969-0.0667 1.15-2.05 0.142-1.55 0.0543-2.2-0.35-2.18zm5.63 0.578c-0.402 0.0079-0.724 0.527-0.359 0.892 0.0871 0.0871 0.253 0.159 0.369 0.159 0.481 0 0.702-0.616 0.332-0.923-0.111-0.0925-0.23-0.13-0.343-0.128zm-11.2 0.016c-0.393-0.0066-0.555 0.243-0.422 0.665 0.146 0.46 0.916 0.271 0.916-0.224 0-0.347-0.0512-0.401-0.412-0.436-0.0283-0.0028-0.0554-0.0042-0.0816-0.0047zm-2.95 0.0016c-0.0097 3.58e-4 -0.0192 9.28e-4 -0.0289 0.0021-0.553 0.0641-0.566 0.662-0.0326 1.53 0.284 0.461 0.408 0.506 0.806 0.292 0.514-0.275-0.11-1.79-0.715-1.82-0.0097-4.7e-4 -0.0197-3.58e-4 -0.0294 0zm28.4 0.373c-0.36 0-0.591 0.316-0.496 0.679 0.0854 0.326 0.768 0.334 0.942 0.0108 0.176-0.329-0.0572-0.69-0.446-0.69zm-22.6 0.0026c-0.128 0.0072-0.26 0.123-0.385 0.361-0.173 0.329 0.0566 2.82 0.272 2.96 0.684 0.434 0.936-0.0227 0.824-1.5-0.0873-1.15-0.385-1.84-0.711-1.82zm-19.9 0.0202c-0.0133 3.17e-4 -0.0268 7.37e-4 -0.0403 0.0021-0.43 0.0417-0.595 0.307-0.441 0.709 0.0845 0.22 0.815 0.26 0.944 0.0512 0.209-0.338-0.0352-0.747-0.424-0.762-0.013-5e-4 -0.026-3.18e-4 -0.0393 0zm11 0.243c-0.636-0.0044-0.38 1.29 0.338 1.71 0.278 0.162 0.256 0.163 0.559 5.17e-4 0.606-0.324-0.118-1.7-0.897-1.71zm30 0.79c-0.483 0-0.733 0.564-0.399 0.898 0.218 0.218 0.569 0.198 0.769-0.0439 0.222-0.267-0.0327-0.854-0.371-0.854zm-10 0.014c-0.512-0.0109-0.748 0.46-0.373 0.835 0.252 0.252 0.335 0.256 0.638 0.0346 0.337-0.246 0.233-0.805-0.16-0.861-0.0365-0.0052-0.0718-0.0081-0.106-0.0088zm-29.3 0.014c-0.069 0.0032-0.145 0.0176-0.228 0.0439-0.246 0.0782-0.351 0.703-0.151 0.903 0.26 0.26 0.764 0.0108 0.804-0.396 0.0356-0.365-0.125-0.564-0.424-0.55zm33 0.514c-0.0509-6.54e-4 -0.106 0.0024-0.166 0.0093-0.384 0.044-0.542 0.329-0.396 0.711 0.134 0.35 0.857 0.237 0.954-0.149 0.0946-0.377-0.0354-0.566-0.392-0.571zm-17 0.0088c-0.485 0.0094-0.584 0.56-0.235 1.46 0.276 0.714 1.16 0.294 1-0.479-0.155-0.771-0.212-0.874-0.535-0.955-0.0849-0.0213-0.162-0.0308-0.232-0.0295zm-9.66 0.0439c-0.408 0-0.568 0.264-0.41 0.676 0.152 0.397 0.804 0.17 0.804-0.281 0-0.352-0.0442-0.396-0.394-0.396zm-4.77 0.65c-0.012 7.62e-4 -0.0227 0.0027-0.032 0.0057-0.741 0.235 0.274 1.59 1.57 2.09 0.505 0.196 0.975-0.24 0.716-0.665-0.27-0.441-1.88-1.45-2.25-1.43zm23.9 0.0765c-0.576 0-0.849 0.645-0.387 0.914 0.323 0.188 0.503 0.174 0.692-0.0537 0.254-0.306 0.0572-0.86-0.305-0.86zm-11.7 0.0207c-0.378-0.0014-0.57 0.326-0.414 0.738 0.217 0.575 0.979 0.242 0.89-0.389-0.0309-0.218-0.143-0.316-0.397-0.345-0.0268-0.0031-0.0529-0.0046-0.078-0.0046zm22.9 0.444c-0.0889-0.0024-0.183 0.0183-0.276 0.0682-0.245 0.131-0.349 0.649-0.166 0.831 0.157 0.157 0.668 0.0935 0.831-0.103 0.286-0.345-0.0034-0.786-0.389-0.796zm-5.31 0.0724c-0.364 0.0176-0.646 0.514-0.357 0.862 0.0906 0.109 0.318 0.18 0.506 0.159 0.416-0.0483 0.492-0.708 0.11-0.949-0.0866-0.0547-0.175-0.0759-0.259-0.0718zm-35.5 0.947c-0.0415 9.21e-4 -0.0774 0.0064-0.106 0.0176-0.548 0.21-0.37 0.808 0.347 1.17 0.843 0.421 1.5 0.169 1.21-0.46-0.134-0.287-0.988-0.703-1.41-0.723-0.015-7e-4 -0.0296-8.24e-4 -0.0434-5.17e-4zm47.1 0.105c-0.777-0.0177-2.11 0.617-2.18 1.28-0.0568 0.589 0.403 0.58 1.75-0.0331 0.987-0.45 1.01-0.475 0.974-0.891-0.0235-0.244-0.243-0.351-0.547-0.358zm-38.1 0.674c-0.013 4.01e-4 -0.0253 0.0014-0.0372 0.0031-0.55 0.0779-0.481 0.76 0.12 1.19 0.77 0.556 1.51 0.39 1.29-0.291-0.111-0.351-0.918-0.885-1.33-0.906-0.0138-7e-4 -0.0274-9.18e-4 -0.0403-5.16e-4zm-6.18 0.509c-0.362 0-0.559 0.554-0.305 0.86 0.193 0.232 0.323 0.244 0.667 0.0594 0.488-0.261 0.229-0.919-0.362-0.919zm1.78 0.879c-0.271 0.0106-0.371 0.181-0.371 0.509 0 0.302 0.164 0.415 1.55 1.06 0.853 0.399 2.35 1.11 3.33 1.57 1.82 0.865 2.31 0.971 2.56 0.565 0.247-0.394-0.0344-0.608-2.03-1.54-1.05-0.492-2.57-1.2-3.36-1.58-0.848-0.403-1.37-0.596-1.68-0.584zm36 0.86c-0.694 0.0252-1.39 0.718-1.19 1.24 0.222 0.578 1.73-0.124 1.73-0.805 0-0.339-0.0537-0.396-0.4-0.43-0.046-0.0045-0.0922-0.0058-0.138-0.0041zm-42.1 1.27c-0.0806 0.0017-0.141 0.0107-0.175 0.0289-0.698 0.374-0.223 0.933 1.06 1.25 1.34 0.331 2.31-0.0959 1.55-0.679-0.331-0.253-1.88-0.613-2.44-0.602zm50.2 0.0512c-0.42 0.0078-0.618 0.386-0.343 0.717 0.298 0.359 0.847 0.179 0.847-0.278 0-0.348-0.0508-0.401-0.418-0.436-0.0299-0.0029-0.0588-0.0041-0.0868-0.0036zm-12.6 0.807c-0.471-9.2e-5 -0.786 0.512-0.431 0.867 0.0903 0.0903 0.313 0.146 0.495 0.125 0.447-0.0522 0.565-0.826 0.146-0.959-0.0721-0.0229-0.143-0.0336-0.21-0.0336zm-32.6 0.388c-0.069 0.0032-0.145 0.0176-0.228 0.0439-0.246 0.0782-0.351 0.703-0.151 0.902 0.26 0.26 0.764 0.0108 0.804-0.396 0.0356-0.365-0.125-0.564-0.424-0.55zm1.94 0.53c-0.385 0.0157-0.631 0.386-0.421 0.78 0.236 0.44 0.839 0.283 0.889-0.232 0.0283-0.291-0.0254-0.438-0.183-0.498-0.0996-0.0382-0.196-0.0532-0.285-0.0496zm36.4 0.0248c-0.179-0.0042-0.416 0.0405-0.725 0.13-0.744 0.216-1.03 0.678-0.652 1.06 0.348 0.353 1.93-0.28 1.86-0.745-0.0441-0.296-0.182-0.438-0.48-0.445zm-34.5 0.533c-0.0949-0.0014-0.164 0.0081-0.198 0.03-0.786 0.492-0.299 0.871 1.92 1.49 2.35 0.656 2.78 0.629 2.66-0.172-0.0467-0.322-3.46-1.33-4.38-1.35zm31.5 0.242c-0.087 0.0026-0.175 0.0329-0.255 0.0992-0.197 0.163-0.26 0.674-0.103 0.831 0.15 0.15 0.664 0.0971 0.814-0.0837 0.289-0.348-0.0793-0.858-0.456-0.846zm-1.91 0.519c-0.02-3.77e-4 -0.0407 1.13e-4 -0.0625 1e-3 -0.159 0.0067-0.365 0.0474-0.631 0.118-0.734 0.196-0.959 0.565-0.603 0.994 0.384 0.462 1.7-0.02 1.7-0.623 0-0.332-0.102-0.485-0.403-0.49zm-39.1 1.3c-0.31 0.0031-0.385 0.061-0.458 0.202-0.194 0.372 0.0121 0.765 0.445 0.852 1.22 0.242 2.36 0.0727 2.4-0.357 0.0493-0.507-0.0038-0.529-1.53-0.649-0.407-0.0319-0.679-0.0499-0.865-0.0481zm51.2 0.0279c-0.143-0.0013-0.299 0.0046-0.465 0.0191-1.42 0.124-1.96 0.521-1.45 1.06 0.144 0.151 2.54-0.0276 2.76-0.205 0.581-0.482 0.166-0.86-0.837-0.869zm-46.6 0.389c-1.35 0.0238-1.76 0.901-0.317 1.06 1.52 0.169 2.2 0.0524 2.24-0.386 0.0504-0.518-0.0643-0.565-1.64-0.669-0.0984-0.0065-0.193-0.0083-0.283-0.0067zm40.6 0.128c-0.397 0.0084-0.822 0.0982-0.973 0.25-0.251 0.251-0.0995 0.748 0.251 0.82 0.156 0.032 0.403 0.0357 0.548 0.0088 0.145-0.0269 0.426-0.0495 0.624-0.0506 0.479-0.0024 0.671-0.602 0.286-0.891-0.135-0.101-0.427-0.144-0.736-0.137zm-37.1 0.194c-0.253 0.0013-0.519 0.152-0.519 0.414 0 0.206 0.0394 0.414 0.0878 0.462 0.345 0.345 0.998-0.0993 0.87-0.591-0.0515-0.197-0.241-0.286-0.438-0.285zm2.07 0.174c-0.0331-1.03e-4 -0.0642 3.17e-4 -0.093 1e-3 -0.385 0.0096-0.407 0.0942-0.463 0.319-0.144 0.574 0.123 0.709 1.66 0.842 2.52 0.217 2.77 0.164 2.59-0.551-0.0936-0.373-0.348-0.428-2.62-0.561-0.507-0.0297-0.847-0.0499-1.08-0.0506zm31.1 0.0848c-0.229-2.88e-4 -0.533 6e-3 -0.938 0.015-2.48 0.0548-3.12 0.316-2.53 1.03 0.189 0.228 0.067 0.225 2.18 0.0532 1.82-0.148 2.07-0.245 2.01-0.775-0.0298-0.256-0.0371-0.32-0.723-0.321zm-4.55 0.215v4.41c0.0077-1.44 0.0079-2.94 0-4.41zm1.52 2.13c-0.192 0.0016-0.339 0.0148-0.412 0.0429-0.71 0.272-0.0813 1 0.953 1.11 2.05 0.206 2.83-0.0738 2.14-0.766-0.176-0.176-1.85-0.389-2.68-0.382zm-26 0.0243c-0.056-4.42e-4 -0.112 3.2e-5 -0.168 1e-3 -0.535 0.0096-1.04 0.0866-1.3 0.245-0.198 0.122-0.182 0.827 0.0212 0.915 0.781 0.34 3.14-0.197 3.14-0.714 0-0.273-0.849-0.44-1.69-0.447zm31.6 0.468c-0.182 0.0015-0.339 0.0146-0.45 0.0424-0.481 0.121-0.44 0.831 0.0537 0.94 0.2 0.044 0.423 0.101 0.496 0.127 0.927 0.328 2.43-0.17 2.1-0.697-0.129-0.205-1.41-0.419-2.2-0.412zm-36.2 0.0202c-0.112 0.0025-0.234 0.0122-0.363 0.03-0.719 0.0988-0.996 0.508-0.638 0.941 0.23 0.277 1.55 0.166 1.78-0.149 0.363-0.497 0.0033-0.839-0.784-0.822zm-3.68 0.376c-0.493 0.0015-0.677 0.453-0.298 0.832 0.252 0.252 0.335 0.257 0.638 0.0351 0.377-0.275 0.23-0.808-0.237-0.861-0.0355-0.0041-0.07-0.0058-0.103-0.0057zm44.7 0.0326c-0.0113-2.4e-5 -0.0226 3.07e-4 -0.0341 1e-3 -0.0851 0.0054-0.176 0.0311-0.271 0.0816-0.253 0.135-0.362 0.651-0.176 0.836 0.173 0.173 0.809 0.0871 0.888-0.12 0.169-0.44-0.0577-0.798-0.407-0.798zm2.57 0.194c-0.48-8e-3 -0.97 0.16-1 0.511-0.0431 0.446-0.0131 0.466 0.899 0.61 0.182 0.0286 0.4 0.0599 0.486 0.0698 0.23 0.0266 0.571-0.36 0.571-0.647 0-0.352-0.471-0.536-0.952-0.544zm-50.6 0.0227c-1.06 0.0028-1.55 0.536-0.917 0.982 0.251 0.176 0.483 0.175 1.37-0.0016 0.868-0.173 0.49-0.983-0.457-0.98zm12.7 1.12c-0.116 0.0016-0.245 0.0214-0.386 0.063-0.837 0.249-1.25 0.88-0.722 1.11 0.299 0.133 1.17-0.0246 1.43-0.258 0.494-0.447 0.282-0.899-0.273-0.917-0.016-5.12e-4 -0.0325-7.39e-4 -0.0491-5.16e-4zm24.9 0.0176c-0.73-0.0217-0.751 0.819-0.0274 1.07 0.801 0.278 1.25 0.172 1.29-0.307 0.0461-0.473-0.393-0.737-1.27-0.763zm2.87 0.776c-0.148 2e-3 -0.267 0.0248-0.328 0.0749-0.354 0.294-0.179 0.808 0.34 0.998 1.02 0.372 1.84-0.0462 1.32-0.671-0.185-0.222-0.892-0.407-1.34-0.402zm-33.5 0.816c-0.36 0.0073-0.986 0.155-2.07 0.436-1.18 0.307-2.37 0.614-2.65 0.684-0.599 0.151-0.902 0.633-0.615 0.978 0.224 0.269 0.435 0.239 3.1-0.449 2.59-0.669 2.71-0.719 2.71-1.12 0-0.34-0.0593-0.512-0.407-0.524-0.0217-7.6e-4 -0.0447-1e-3 -0.0687-5.17e-4zm37.4 0.198c-0.0918-9.26e-4 -0.192 0.0171-0.297 0.0574-0.207 0.0796-0.294 0.715-0.121 0.888 0.185 0.185 0.701 0.0768 0.836-0.176 0.219-0.409-0.0209-0.765-0.419-0.769zm-6.88 0.674c-0.0586-9.22e-4 -0.111 0.0039-0.155 0.015-0.876 0.22-0.471 0.771 1.08 1.47 0.781 0.352 1.48 0.691 1.55 0.753 0.335 0.292 0.793 0.0505 0.793-0.418 0-0.514-2.39-1.81-3.27-1.82zm-24.7 0.0243c-0.0175-4.4e-4 -0.0357-3.89e-4 -0.0548 5.17e-4 -0.237 0.0113-0.592 0.127-1.11 0.343-1.09 0.457-1.44 0.801-1.27 1.24 0.213 0.554 2.79-0.462 2.79-1.1 0-0.317-0.0956-0.475-0.359-0.482zm34.5 0.0713c-0.313 0-0.572 0.447-0.46 0.797 0.0565 0.178 0.201 0.259 0.46 0.259s0.404-0.0809 0.461-0.259c0.111-0.35-0.148-0.797-0.461-0.797zm-47.3 0.802c-0.0106-2.58e-4 -0.0211-2.5e-5 -0.0315 5.17e-4 -0.363 0.0188-0.649 0.512-0.364 0.855 0.177 0.214 0.498 0.245 0.765 0.0754 0.235-0.149 0.146-0.678-0.144-0.86-0.0751-0.0471-0.152-0.069-0.226-0.0708zm50.2 0.0165c-0.392-0.0117-0.611 0.302-0.431 0.696 0.252 0.554 0.95 0.403 0.95-0.205 0-0.298-0.0731-0.398-0.341-0.465-0.0624-0.0157-0.122-0.0237-0.178-0.0253zm-41.2 0.785c-0.0108 9.2e-5 -0.0213 7.07e-4 -0.032 0.0016-0.286 0.0225-0.534 0.309-0.433 0.713 0.0685 0.273 0.153 0.332 0.43 0.299 0.446-0.0534 0.689-0.417 0.49-0.734-0.123-0.196-0.293-0.28-0.455-0.279zm28.3 0.905c-0.866 0-0.616 0.848 0.478 1.62 1.15 0.808 1.94 0.774 1.63-0.0703-0.0793-0.218-1.89-1.55-2.11-1.55zm-30.1 0.0052c-0.0889 0.0036-0.192 0.0289-0.312 0.0749-0.246 0.0944-0.276 0.592-0.0501 0.818 0.421 0.421 1.05-0.101 0.766-0.634-0.0908-0.17-0.205-0.254-0.367-0.259-0.0122-3.75e-4 -0.0245-5.09e-4 -0.0372 0zm35.8 0.0222c-0.038 3.35e-4 -0.0692 0.0048-0.093 0.014-0.256 0.0982-0.295 0.821-0.0496 0.924 0.0908 0.0384 0.996 0.461 2.01 0.938 2.21 1.04 2.44 1.06 2.44 0.251 0-0.412-3.43-2.08-4.27-2.13-0.0141-7.75e-4 -0.0276-0.0011-0.0403-1e-3zm-38.6 1.29c-0.501 0-0.719 0.59-0.325 0.879 0.134 0.0976 0.28 0.177 0.325 0.177s0.19-0.0796 0.324-0.177c0.395-0.289 0.177-0.879-0.324-0.879zm6.16 0.547c-0.633 0.0079-1.54 0.699-1.31 1.22 0.197 0.433 0.45 0.437 1.17 0.0165 0.611-0.358 0.828-0.759 0.576-1.06-0.103-0.124-0.258-0.175-0.436-0.173zm-8.04 0.315c-0.299 0.0076-0.694 0.142-1.12 0.41-0.282 0.177-0.404 0.69-0.209 0.885 0.291 0.291 1.78-0.277 1.86-0.71 0.076-0.394-0.149-0.594-0.533-0.584zm46.2 0.479c-0.386-0.0121-0.566 0.24-0.423 0.615 0.187 0.493 0.844 0.358 0.844-0.174 0-0.328-0.0591-0.403-0.342-0.436-0.0275-0.0032-0.0539-0.0049-0.0796-0.0057zm-35.4 0.811c-0.621 0.0207-1.55 1.21-1.17 1.59 0.404 0.404 1.63-0.442 1.63-1.12 0-0.285-0.0763-0.387-0.34-0.453-0.0382-0.0096-0.0785-0.0133-0.12-0.0119zm-5.18 0.0925c-0.777 0-1.69 1.08-1.27 1.5 0.273 0.273 1.36-0.232 1.66-0.772 0.141-0.252-0.114-0.725-0.391-0.725zm8.55 0.142c-0.0106-2.77e-4 -0.021-1e-5 -0.0315 5.16e-4 -0.363 0.0183-0.649 0.511-0.364 0.854 0.0875 0.105 0.263 0.192 0.391 0.192 0.525 0 0.688-0.687 0.231-0.975-0.0751-0.0473-0.152-0.0694-0.226-0.0713zm9.49 0.254c-0.0145-2.12e-4 -0.0291-3.3e-5 -0.0434 5.17e-4 -0.178 0.0068-0.338 0.0727-0.388 0.203-0.107 0.28 0.0569 1.81 0.216 2.01 0.593 0.752 1.27-0.997 0.753-1.96-0.0881-0.165-0.321-0.253-0.538-0.256zm-2.17 5.17e-4c-0.519 0-0.832 1.72-0.394 2.15 0.507 0.507 0.86 0.155 0.961-0.958 0.0804-0.887-0.0659-1.2-0.567-1.2zm4.42 0c-0.607 0-0.551 1.58 0.0935 2.61 0.568 0.91 1.08 0.166 0.779-1.13-0.312-1.34-0.395-1.48-0.873-1.48zm-9.11 5.16e-4c-0.233-0.0123-0.389 0.208-0.389 0.598 0 0.456 0.0167 0.473 0.429 0.434 0.487-0.0469 0.632-0.677 0.216-0.939-0.092-0.058-0.178-0.0879-0.256-0.092zm2.48 0.0155c-0.0373-1e-3 -0.0765 0.0013-0.117 0.0072-0.341 0.0492-0.702 1.01-0.575 1.53 0.0936 0.385 0.785 0.42 0.983 0.0496 0.429-0.801 0.27-1.57-0.29-1.58zm9.1 0.0326c-0.148-0.0069-0.287 0.0642-0.393 0.235-0.153 0.244 0.185 1.29 0.527 1.63 0.354 0.354 0.837 0.178 0.837-0.304 0-0.823-0.527-1.54-0.97-1.56zm3.85 1.43c-0.664-0.0136-0.548 0.837 0.248 1.63 0.33 0.33 0.977 0.0774 0.964-0.376-0.0117-0.414-0.743-1.21-1.15-1.25-0.0231-0.0023-0.0452-0.0037-0.0667-0.0041zm-19.2 0.045c-0.703 0-2.62 2.86-2.2 3.28 0.368 0.368 0.789 0.0598 1.73-1.27 1.1-1.54 1.21-2.01 0.465-2.01zm-6.5 0.33c-2.76-0.0019-3.66 3.49-1.24 4.8 0.472 0.256 1.79 0.271 2.26 0.0253 2.39-1.25 1.64-4.83-1.02-4.83zm9.5 0.132c-0.569 0-1.22 1.38-0.83 1.77 0.263 0.263 0.756-0.0065 1.06-0.578 0.402-0.763 0.322-1.19-0.227-1.19zm-14.7 0.536c-0.404-0.0086-0.717 0.584-0.32 0.874 0.131 0.0956 0.274 0.174 0.319 0.174 0.489 0 0.657-0.707 0.231-0.976-0.0771-0.0486-0.155-0.0708-0.23-0.0724zm5.05 0.256c1.57 0 2.25 1.74 1.08 2.76-0.368 0.323-0.583 0.406-1.05 0.406-0.465 0-0.68-0.0834-1.05-0.406-1.15-1.01-0.511-2.76 1.02-2.76zm12.1 0.111c-0.0984 0.0025-0.209 0.0482-0.328 0.147-0.23 0.191-0.502 1.28-0.399 1.6 0.132 0.415 0.826 0.338 1.01-0.112 0.344-0.846 0.145-1.65-0.281-1.64zm11.2 0.047c-0.617 0.0602-0.576 0.418 0.245 2.14 0.783 1.64 1.38 2.1 1.6 1.23 0.159-0.632-1.37-3.41-1.84-3.37zm-8.35 0.524c-0.0277-5.37e-4 -0.0563 7.63e-4 -0.0858 0.0036-0.423 0.0412-0.588 0.309-0.435 0.708 0.0947 0.247 0.664 0.246 0.869-0.0016 0.27-0.325 0.0673-0.702-0.348-0.711zm-14.9 0.44c-0.407 0-0.585 0.347-0.41 0.802 0.183 0.476 0.911 0.116 0.85-0.42-0.0373-0.326-0.101-0.381-0.44-0.381zm17.7 0.462c-0.532 0-0.726 2.15-0.261 2.9 0.122 0.197 0.671 0.16 0.851-0.0563 0.393-0.474-0.0986-2.85-0.59-2.85zm-9.42 0.318c-0.0887 1e-3 -0.187 0.0271-0.291 0.0827-0.245 0.131-0.349 0.649-0.166 0.831 0.189 0.189 0.805 0.0866 0.86-0.143 0.105-0.439-0.0711-0.749-0.366-0.77-0.0123-8.63e-4 -0.0245-0.0012-0.0372-1e-3zm12.5 0.21c-0.591 0-0.651 1.1-0.0992 1.82 0.0718 0.0944 0.284 0.154 0.472 0.132 0.699-0.0812 0.341-1.95-0.373-1.95zm-6.26 1.52c-0.362-0.0069-0.52 0.369-0.629 1.39-0.272 2.56-0.36 4.28-0.233 4.52 0.179 0.335 0.667 0.238 0.856-0.17 0.434-0.937 0.576-5.61 0.174-5.72-0.0606-0.0158-0.117-0.0248-0.168-0.0258zm-11.4 0.0222c-0.248 9e-3 -0.568 0.203-0.836 0.626-0.416 0.657-0.433 0.776-0.151 1.06 0.366 0.366 0.821 0.116 1.23-0.675 0.33-0.64 0.121-1.02-0.242-1.01zm4.19 0.196c-0.393-0.0066-0.556 0.243-0.422 0.665 0.146 0.46 0.916 0.272 0.916-0.224 0-0.347-0.0512-0.402-0.412-0.437-0.0283-0.0027-0.0554-0.0042-0.0816-0.0047zm3.86 0.162c-0.265 0.0047-0.601 0.356-0.78 0.964-0.593 2.01-0.717 2.67-0.543 2.88 0.176 0.212 0.501 0.255 0.743 0.0972 0.209-0.136 0.999-3 0.949-3.43-0.0404-0.351-0.187-0.51-0.368-0.507zm10.2 0.983c-0.116 0.0016-0.201 0.0413-0.201 0.134 0 0.0713-0.0329 0.216-0.0734 0.321-0.0405 0.106 0.0233 0.289 0.142 0.407 0.407 0.407 0.917 0.119 0.834-0.471-0.0302-0.213-0.445-0.396-0.701-0.392zm4.63 0.699c-0.0384 1e-3 -0.0811 0.0047-0.129 0.0093-0.529 0.0516-0.607 0.521-0.213 1.29 0.565 1.11 1.42 0.516 0.921-0.638-0.243-0.564-0.311-0.671-0.58-0.664zm-24.7 0.449c-0.0733 0.0016-0.157 0.0126-0.25 0.0326-0.234 0.0501-0.332 0.677-0.137 0.872 0.259 0.259 0.764 0.0109 0.804-0.396 0.0341-0.35-0.0999-0.516-0.418-0.509zm16.9 0.612c-0.0272 3.83e-4 -0.0559 0.0023-0.0853 0.0052-0.418 0.0408-0.581 0.311-0.428 0.708 0.107 0.28 0.708 0.235 0.868-0.0646 0.207-0.386 0.053-0.654-0.354-0.649zm-12.5 0.794c-0.504 0.0133-1.14 1.09-0.93 1.63 0.045 0.117 0.243 0.198 0.484 0.198 0.783 0 1.25-1.74 0.495-1.82-0.016-0.0018-0.0323-0.0025-0.0486-0.0021zm21.5 0.808c-0.0435 0.0025-0.0884 0.0107-0.134 0.0253-0.27 0.0856-0.389 0.699-0.177 0.911 0.23 0.23 0.765 0.014 0.804-0.326 0.0422-0.363-0.188-0.628-0.493-0.61zm-8.85 0.367c-0.0106-2.76e-4 -0.021-9e-6 -0.0315 5.17e-4 -0.363 0.0183-0.649 0.511-0.364 0.855 0.0875 0.105 0.263 0.192 0.391 0.192 0.525 0 0.688-0.688 0.231-0.976-0.0751-0.0473-0.152-0.0694-0.226-0.0713zm4.27 0.275c-0.527 0.0085-0.576 0.515-0.161 1.6 0.189 0.493 0.854 0.524 0.974 0.0455 0.166-0.662-0.232-1.59-0.701-1.64-0.0394-0.0038-0.0765-0.0052-0.112-0.0047zm-13.1 0.943c-0.0435 0.0025-0.0889 0.0107-0.135 0.0253-0.27 0.0856-0.388 0.699-0.176 0.911 0.23 0.23 0.765 0.014 0.804-0.326 0.0422-0.363-0.188-0.628-0.493-0.61zm4.49 0.763c-0.0106-2.76e-4 -0.021-9e-6 -0.0315 5.17e-4 -0.363 0.0183-0.65 0.511-0.365 0.854 0.0875 0.105 0.264 0.192 0.391 0.192 0.525 0 0.688-0.687 0.231-0.975-0.0751-0.0473-0.152-0.0694-0.226-0.0713zm4.56 0.0181c-0.069 0.0032-0.145 0.0181-0.228 0.0444-0.246 0.0782-0.351 0.703-0.151 0.902 0.26 0.26 0.765 0.0108 0.805-0.396 0.0356-0.365-0.126-0.564-0.425-0.55z" stroke-width=".132"/><metadata><rdf:RDF><cc:License rdf:about="http://creativecommons.org/licenses/by-sa/4.0/"><cc:permits rdf:resource="http://creativecommons.org/ns#Reproduction"/><cc:permits rdf:resource="http://creativecommons.org/ns#Distribution"/><cc:requires rdf:resource="http://creativecommons.org/ns#Notice"/><cc:requires rdf:resource="http://creativecommons.org/ns#Attribution"/><cc:permits rdf:resource="http://creativecommons.org/ns#DerivativeWorks"/><cc:requires rdf:resource="http://creativecommons.org/ns#ShareAlike"/></cc:License><cc:Work rdf:about=""><cc:license rdf:resource="http://creativecommons.org/licenses/by-sa/4.0/"/><dc:creator><cc:Agent><dc:title>PJ568</dc:title></cc:Agent></dc:creator><dc:rights><cc:Agent><dc:title>PJ568</dc:title></cc:Agent></dc:rights><dc:contributor><cc:Agent><dc:title>PJ568</dc:title></cc:Agent></dc:contributor></cc:Work></rdf:RDF></metadata><path d="m33.9 25.4c-4.23-0.175-8.01 3.49-8.46 7.61-0.461 3.85 2.12 7.86 5.89 8.89 3.08 0.992 6.85 0.17 8.88-2.46 0.636-0.535-0.508 0.747-0.865 0.328-0.993-0.307-1.44-1.35-2.2-1.98-1.1-1.11-2.19-2.23-3.3-3.33 0.175 0.963 0.481 2.23-0.742 2.57-1.09 0.951-2.01 2.07-3.05 3.07-0.975 0.472-1.69-0.573-2.36-1.1-0.713-0.689-0.19-1.84 0.554-2.27 0.801-0.82 1.65-1.59 2.36-2.5 0.0917-1.19 2.01-0.205 2.09-0.997-0.673-1.04-1.99 0.0873-2.9-0.429-1.2-0.469-2.08-1.83-1.75-3.12 1.18-0.393 1.31 1.41 2.32 1.64 1.25 0.536 2.73-1.14 1.89-2.29-0.404-0.675-1.76-0.968-1.4-1.94 0.719-0.731 1.89-0.149 2.61 0.313 1.01 0.663 0.97 1.95 0.337 2.84-0.417 0.82 0.609 2.24 1.31 1.2 0.838-0.864 1.74-1.69 2.3-2.77 0.337-0.723 1.55-1.56 2.12-0.64 0.284 0.819-0.272 1.8-1.1 2.02-0.929 0.392-1.51 1.24-2.2 1.91-0.903 0.43-0.692 1.42 0.0554 1.85 1.55 1.53 3.09 3.07 4.58 4.66-0.0387 0.737-0.561 0.0569 0.0064-0.192 0.761-0.999 1.41-2.15 1.45-3.44 0.488-4.04-2.31-8.3-6.33-9.2-0.689-0.177-1.4-0.268-2.11-0.268zm-1.48 4.97 0.0425-0.0254zm-1.45-3.23c-0.523 0.063 0.643-0.0357 0 0zm0.28 0c0.318 0.078 0.262-0.0073 0 0zm2.26 3.17-0.105 0.0683zm-0.157 0.0951c-0.1 0.0312-0.383 0.119 0 0zm-0.667 0.0875 0.0908 0.0142zm0.551 0.105c-0.0247 0.142-0.0562 0.323 0 0zm-0.0648 0.335-0.0132 0.0429zm-0.0861 0.276c-0.0437 0.106-0.146 0.352 0 0zm7.23 7.68 0.0213 0.0378zm0.0214 0.0379 0.0158 0.0399zm0.0255 0.073 0.0085 0.0477z" fill="#bbdefb" stroke-width=".386"/></svg>
