<?xml version="1.0" encoding="UTF-8"?>
<!-- Created with Inkscape (http://www.inkscape.org/) -->
<svg width="256" height="256" version="1.1" viewBox="0 0 67.7 67.7" xmlns="http://www.w3.org/2000/svg" xmlns:cc="http://creativecommons.org/ns#" xmlns:dc="http://purl.org/dc/elements/1.1/" xmlns:rdf="http://www.w3.org/1999/02/22-rdf-syntax-ns#">
 <rect width="67.7" height="67.7" fill="#fff" stroke-width=".265"/>
 <path d="m2.12 2.12v13.5h13.5v-13.5h-11.5zm23.1 0v5.77h3.85v-1.92h1.92v-1.92h-1.92v-1.92h-1.92zm5.77 1.92h1.92v-1.92h-1.92zm0 1.92v1.92h-1.92v1.92h1.92v3.85h1.92v1.92h1.92v-1.92h1.92v-1.92h1.92v-1.92h-3.85v1.92h-1.92v-1.92h1.92v-1.92h-1.92v-1.92zm3.85 1.92h3.85v-1.92h-1.92v-1.92h3.85v-1.92h-5.77v3.85zm5.77-3.85v3.85h-1.92v1.92h5.77v-1.92h1.92v-3.85h-1.92v1.92h-1.92v-1.92zm1.92 0h1.92v-1.92h-1.92zm3.85 0h1.92v-1.92h-1.92zm1.92 0v1.92h1.92v-1.92zm-1.92 3.85v5.77h1.92v1.92h1.92v-3.85h-1.92v-1.92h1.92v-1.92h-1.92zm1.92 7.7h-1.92v-1.92h-1.92v1.92h-1.92v1.92h1.92v1.92h-7.7v3.85h1.92v-1.92h1.92v1.92h-1.92v1.92h-1.92v1.92h3.85v-1.92h1.92v1.92h-1.92v1.92h1.92v1.92h-1.92v-1.92h-1.92v1.92h-1.92v1.92h1.92v1.92h-1.92v-1.92h-1.92v5.77h-3.85v1.92h-1.92v3.85h1.92v9.62h-5.77v1.92h3.85v1.92h1.92v1.92h5.77v-1.92h-3.85v-7.7h3.85v-1.92h-3.85v-1.92h5.77v-3.85h-3.85v1.92h-1.92v-1.92h1.92v-1.92h5.77v-1.92h-3.85v-1.92h3.85v1.92h1.92v-3.85h-1.92v-1.92h3.85v-11.5h3.85v-1.92h-1.92v-1.92h1.92zm0 1.92v1.92h1.92v-1.92zm-3.85 15.4v1.92h1.92v1.92h1.92v-1.92h1.92v1.92h-1.92v1.92h3.85v-1.92h1.92v1.92h-1.92v1.92h1.92v1.92h-1.92v1.92h1.92v1.92h1.92v-1.92h1.92v1.92h-1.92v1.92h-3.85v-1.92h-1.92v1.92h-3.85v-1.92h-1.92v-3.85h1.92v3.85h3.85v-5.77h-1.92v-1.92h-1.92v1.92h-5.77v1.92h1.92v1.92h-1.92v1.92h1.92v1.92h1.92v1.92h-5.77v1.92h3.85v1.92h-3.85v1.92h-1.92v1.92h3.85v-1.92h1.92v1.92h1.92v-1.92h1.92v-1.92h-1.92v-1.92h1.92v-1.92h1.92v1.92h-1.92v1.92h1.92v3.85h1.92v1.92h-1.92v1.92h1.92v1.92h1.92v-1.92h3.85v-1.92h-3.85v-1.92h3.85v1.92h1.92v1.92h-1.92v1.92h3.85v1.92h3.85v-1.92h-1.92v-3.85h-1.92v-3.85h1.92v3.85h1.92v-1.92h1.92v-3.85h-3.85v-5.77h1.92v-3.85h-1.92v1.92h-1.92v-5.77h1.92v-5.77h-3.85v1.92h1.92v1.92h-1.92v-1.92h-1.92v-1.92h1.92v-1.92h3.85v-1.92h1.92v-1.92h1.92v-3.85h-3.85v3.85h-1.92v1.92h-1.92v-1.92h-1.92v-3.85h-1.92v3.85h-3.85v-5.77h-1.92v7.7h1.92v1.92h-1.92v-1.92h-1.92v1.92zm5.77-9.62h1.92v-1.92h-1.92zm1.92-1.92h3.85v-1.92h1.92v1.92h1.92v1.92h-1.92v-1.92h-1.92v3.85h1.92v3.85h1.92v-3.85h1.92v-7.7h-9.62v1.92zm0 1.92v1.92h1.92v-1.92zm9.62 17.3v1.92h1.92v1.92h1.92v-5.77h-1.92v1.92zm1.92 7.7v1.92h1.92v-1.92zm-7.7 15.4h-3.85v1.92h3.85zm-11.5-5.77v1.92h1.92v-1.92zm0 1.92h-1.92v1.92h-1.92v-1.92h-3.85v5.77h3.85v-1.92h5.77v-1.92h-1.92zm-3.85 0h1.92v-1.92h-1.92zm-1.92-5.77v-1.92h-1.92v1.92zm7.7-15.4v-1.92h-1.92v1.92zm-21.2 15.4v-1.92h-1.92v1.92zm-1.92 0h-1.92v1.92h-1.92v-1.92h-1.92v7.7h3.85v-1.92h-1.92v-1.92h1.92v1.92h1.92v1.92h-1.92v1.92h1.92v1.92h3.85v-1.92h-1.92v-3.85h1.92v-1.92h-3.85v-1.92zm3.85 9.62h1.92v-1.92h-1.92zm-5.77 0h-3.85v1.92h3.85zm3.85-11.5h1.92v-3.85h1.92v-3.85h-1.92v1.92h-3.85v-1.92h-3.85v-1.92h-1.92v1.92h-3.85v-1.92h3.85v-1.92h1.92v1.92h1.92v-3.85h-1.92v-1.92h-1.92v1.92h-1.92v1.92h-3.85v-1.92h-1.92v-1.92h-1.92v3.85h1.92v1.92h1.92v3.85h-1.92v1.92h3.85v-1.92h3.85v5.77h3.85v-1.92h-1.92v-1.92h5.77v1.92zm-11.5-3.85v1.92h1.92v-1.92zm-3.85-1.92v-1.92h-1.92v1.92zm-1.92 0h-1.92v1.92h1.92zm0-1.92v-3.85h-1.92v-3.85h-1.92v-1.92h-1.92v5.77h1.92v1.92h-1.92v7.7h1.92v-5.77h1.92zm7.7-5.77v-1.92h-1.92v1.92zm-1.92-1.92v-1.92h-1.92v1.92zm-1.92-1.92v-1.92h-1.92v-1.92h-1.92v-1.92h1.92v-1.92h-1.92v-3.85h3.85v-3.85h3.85v-1.92h-9.62v1.92h1.92v1.92h-3.85v-3.85h-1.92v5.77h1.92v3.85h1.92v5.77h1.92v1.92h1.92zm-1.92-7.7h1.92v1.92h1.92v-1.92h5.77v-1.92h-1.92v-1.92h-1.92v1.92h-5.77zm5.77-3.85v-1.92h-1.92v1.92zm3.85 1.92h1.92v1.92h1.92v-1.92h1.92v3.85h-3.85v-1.92h-1.92v3.85h1.92v3.85h-1.92v1.92h3.85v1.92h1.92v1.92h3.85v-3.85h-1.92v-1.92h-1.92v-1.92h-1.92v-1.92h7.7v-1.92h3.85v-1.92h-1.92v-1.92h-1.92v1.92h-1.92v1.92h-1.92v-5.77h-1.92v-1.92h-1.92v1.92h-1.92v-1.92h-1.92v1.92zm1.92-3.85h1.92v-1.92h-1.92zm1.92-1.92h1.92v1.92h1.92v-1.92h3.85v3.85h1.92v-7.7h-1.92v-1.92h-1.92v1.92h-1.92v-3.85h-3.85v1.92h1.92v3.85h-1.92zm0-1.92v-3.85h-1.92v1.92h-1.92v-1.92h1.92v-1.92h-1.92v-1.92h1.92v-1.92h-1.92v-1.92h-1.92v11.5h3.85zm-1.92-9.62h1.92v-3.85h-1.92v1.92zm0 1.92v1.92h1.92v-1.92zm11.5 13.5v1.92h1.92v-1.92zm-1.92 0h-1.92v1.92h1.92zm3.85 5.77v1.92h1.92v-1.92zm0 1.92h-1.92v1.92h1.92zm-5.77 5.77h3.85v-1.92h-3.85zm-3.85 3.85h-1.92v3.85h1.92v-1.92zm-11.5-11.5v1.92h1.92v1.92h1.92v-3.85h-1.92zm1.92 3.85h-1.92v1.92h1.92zm-1.92 0v-1.92h-1.92v1.92zm-1.92-1.92v-1.92h-1.92v1.92zm25-11.5v-1.92h-1.92v1.92zm5.77-3.85v-1.92h1.92v-1.92h-3.85v3.85zm-5.77-1.92v1.92h1.92v-1.92zm15.4-11.5v13.5h13.5v-13.5h-11.5zm-48.1 1.92h9.62v9.62h-9.62v-7.7zm50 0h9.62v9.62h-9.62v-7.7zm-48.1 1.92v5.77h5.77v-5.77h-3.85zm50 0v5.77h5.77v-5.77h-3.85zm7.7 13.5v1.92h1.92v-1.92zm-61.6 9.62v3.85h1.92v-3.85zm52 1.92h1.92v1.92h-1.92v1.92h-1.92v-1.92h1.92zm9.62 1.92v3.85h1.92v-3.85zm-7.7 7.7h1.92v1.92h-1.92zm1.92 7.7h1.92v5.77h-1.92v-3.85zm-7.7 1.92h5.77v5.77h-5.77v-3.85zm-48.1 1.92v13.5h13.5v-13.5h-11.5zm50 0v1.92h1.92v-1.92zm-48.1 1.92h9.62v9.62h-9.62v-7.7zm1.92 1.92v5.77h5.77v-5.77h-3.85zm26.9 5.77v3.85h1.92v-3.85z" stroke-width=".214"/>
 <metadata>
  <rdf:RDF>
   <cc:License rdf:about="http://creativecommons.org/licenses/by-sa/4.0/">
    <cc:permits rdf:resource="http://creativecommons.org/ns#Reproduction"/>
    <cc:permits rdf:resource="http://creativecommons.org/ns#Distribution"/>
    <cc:requires rdf:resource="http://creativecommons.org/ns#Notice"/>
    <cc:requires rdf:resource="http://creativecommons.org/ns#Attribution"/>
    <cc:permits rdf:resource="http://creativecommons.org/ns#DerivativeWorks"/>
    <cc:requires rdf:resource="http://creativecommons.org/ns#ShareAlike"/>
   </cc:License>
   <cc:Work rdf:about="">
    <cc:license rdf:resource="http://creativecommons.org/licenses/by-sa/4.0/"/>
    <dc:creator>
     <cc:Agent>
      <dc:title>PJ568</dc:title>
     </cc:Agent>
    </dc:creator>
    <dc:rights>
     <cc:Agent>
      <dc:title>PJ568</dc:title>
     </cc:Agent>
    </dc:rights>
    <dc:contributor>
     <cc:Agent>
      <dc:title>PJ568</dc:title>
     </cc:Agent>
    </dc:contributor>
   </cc:Work>
  </rdf:RDF>
 </metadata>
</svg>
